<svg width="58" height="57" viewBox="0 0 58 57" fill="none" xmlns="http://www.w3.org/2000/svg">
<rect y="0.556519" width="58" height="56" rx="10" fill="white"/>
<g clip-path="url(#clip0_21_6)">
<path d="M14.6744 28.9707L14.6745 28.9709C14.9278 29.6647 15.1698 30.3292 15.3488 30.9444C15.5284 31.5613 15.6394 32.1112 15.6394 32.5759C15.6394 35.0463 15.8928 38.3804 16.6263 41.1049C16.9926 42.4656 17.4837 43.6934 18.1367 44.5862C18.7924 45.4827 19.6317 46.0659 20.684 46.0659C22.0809 46.0659 22.9813 45.2518 23.6129 44.122C24.2353 43.0088 24.6237 41.5443 24.9946 40.1457L24.999 40.1294C24.999 40.1294 24.999 40.1293 24.999 40.1293C25.3533 38.7967 25.6887 37.5391 26.1631 36.6121C26.6362 35.6874 27.2069 35.1672 28.0067 35.1672C28.3664 35.1672 28.6531 35.2635 28.8964 35.442C29.1441 35.6237 29.3613 35.9013 29.5595 36.2855C29.9599 37.0616 30.2499 38.2039 30.5828 39.6737C30.5829 39.6737 30.5829 39.6737 30.5829 39.6738L30.5865 39.6899C30.9087 41.1146 31.2629 42.6812 31.9422 43.89C32.2856 44.5011 32.7182 45.0328 33.2826 45.4114C33.8497 45.7918 34.5363 46.0085 35.3707 46.0085C36.6312 46.0085 37.5693 45.2442 38.2576 44.1406C38.9442 43.0398 39.4084 41.5648 39.7249 40.0436C40.3588 36.9972 40.4167 33.6807 40.4167 32.5759C40.4167 32.1282 40.5244 31.5878 40.6989 30.9763C40.8728 30.3669 41.1076 29.7046 41.3529 29.0142L41.3529 29.0142L41.3677 28.9727C42.4536 25.9144 43.8593 21.9556 41.286 18.4948C39.6486 16.2911 37.9021 15.2232 35.7987 15.2232C34.4696 15.2232 33.2069 15.639 31.9178 16.0634L31.8965 16.0704L31.8964 16.0704C30.5833 16.5032 29.2706 16.9325 27.904 16.9325C26.561 16.9325 25.2412 16.4945 23.9206 16.0534L23.9142 16.0513C22.6002 15.6106 21.3137 15.1792 19.9734 15.1792C17.8632 15.1792 16.1606 16.2717 14.6192 18.517L14.6192 18.5171C12.1698 22.0882 13.5723 25.942 14.658 28.9255L14.6744 28.9707ZM15.9102 19.404L15.9102 19.404C17.1964 17.5296 18.4468 16.7472 19.972 16.7472C21.045 16.7472 22.1748 17.1217 23.424 17.5358L23.4361 17.5399C24.8227 18.0034 26.2979 18.4965 27.904 18.4965C29.5304 18.4965 30.9953 18.0134 32.3732 17.559L32.3863 17.5546L32.3864 17.5546C33.6157 17.1489 34.7291 16.7859 35.7987 16.7859C37.3456 16.7859 38.6452 17.5651 40.0274 19.425L40.2167 19.2843L40.0274 19.425C41.0572 20.8106 41.2884 22.3171 41.1279 23.8593C40.9663 25.4111 40.4104 26.9819 39.8764 28.4869L39.8674 28.5122C39.3545 29.9552 38.8487 31.3782 38.8487 32.5732C38.8487 35.4778 38.5579 38.4831 37.9536 40.7542C37.651 41.8916 37.2741 42.8275 36.828 43.4734C36.3815 44.1199 35.8946 44.4379 35.3707 44.4379C34.8786 44.4379 34.4865 44.3181 34.1597 44.1012C33.8302 43.8824 33.5517 43.5544 33.3059 43.1145C32.8093 42.2253 32.4754 40.9349 32.1105 39.3246L32.1105 39.3245L32.1045 39.298C31.7999 37.9561 31.4801 36.5471 30.9021 35.4746C30.6089 34.9306 30.2425 34.4593 29.7653 34.124C29.2848 33.7865 28.7054 33.5965 28.0054 33.5965C26.5303 33.5965 25.5764 34.4696 24.912 35.6506C24.2568 36.8152 23.8556 38.3248 23.4894 39.7025L23.4837 39.7236L23.4837 39.7237C23.1428 41.0074 22.8201 42.219 22.3739 43.1119C21.9268 44.0066 21.4 44.4965 20.6827 44.4965C20.2218 44.4965 19.7629 44.1918 19.3227 43.5453C18.8858 42.9036 18.5018 41.9724 18.1852 40.8369C17.5529 38.5693 17.206 35.55 17.206 32.5745C17.206 31.3431 16.6863 29.9168 16.1589 28.4695L16.1456 28.4329L16.1456 28.4329C15.0693 25.4812 13.9263 22.2948 15.9102 19.404Z" fill="#27C7D7" stroke="#27C7D7" stroke-width="0.5"/>
</g>
<path d="M52.286 12.0555L50.2069 10.9184C49.4616 10.5118 48.8971 9.83904 48.6262 9.03444L47.2247 4.88606C47.1671 4.71574 47.0576 4.56777 46.9116 4.46295C46.7655 4.35813 46.5903 4.30176 46.4105 4.30176C46.2307 4.30176 46.0555 4.35813 45.9094 4.46295C45.7634 4.56777 45.6539 4.71574 45.5964 4.88606L44.1947 9.03444C43.9238 9.83901 43.3594 10.5118 42.6141 10.9184L40.5349 12.0555C40.3996 12.1295 40.2867 12.2385 40.2081 12.3712C40.1294 12.5038 40.0879 12.6552 40.0879 12.8095C40.0879 12.9637 40.1294 13.1151 40.2081 13.2478C40.2867 13.3804 40.3996 13.4895 40.5349 13.5635L42.6141 14.7005C43.3594 15.1071 43.9238 15.7799 44.1947 16.5845L45.5964 20.7329C45.6539 20.9032 45.7634 21.0512 45.9094 21.156C46.0555 21.2608 46.2307 21.3172 46.4105 21.3172C46.5903 21.3172 46.7655 21.2608 46.9116 21.156C47.0576 21.0512 47.1671 20.9032 47.2247 20.7329L48.6262 16.5845C48.8971 15.7799 49.4616 15.1071 50.2069 14.7006L52.286 13.5635C52.4213 13.4894 52.5342 13.3804 52.6128 13.2477C52.6915 13.1151 52.733 12.9637 52.733 12.8095C52.733 12.6552 52.6915 12.5038 52.6128 12.3712C52.5342 12.2385 52.4213 12.1295 52.286 12.0555V12.0555ZM49.3821 13.1926C48.2579 13.8059 47.4065 14.8207 46.9979 16.0344L46.4105 17.773L45.8231 16.0344C45.4144 14.8207 44.563 13.8059 43.4389 13.1926L42.7383 12.8095L43.4389 12.4263C44.5631 11.813 45.4145 10.7982 45.8231 9.58455L46.4105 7.84593L46.9979 9.58455C47.4065 10.7982 48.2579 11.813 49.3821 12.4263L50.0827 12.8095L49.3821 13.1926Z" fill="#27C7D7"/>
<path d="M13.1981 31.0708L11.119 29.9337C10.3737 29.5272 9.80921 28.8544 9.53831 28.0498L8.13679 23.9014C8.07924 23.7311 7.96974 23.5831 7.82369 23.4783C7.67764 23.3735 7.50239 23.3171 7.32262 23.3171C7.14285 23.3171 6.96761 23.3735 6.82156 23.4783C6.67551 23.5831 6.566 23.7311 6.50846 23.9014L5.10684 28.0498C4.83594 28.8544 4.2715 29.5272 3.52624 29.9337L1.44705 31.0708C1.31173 31.1448 1.19882 31.2539 1.12016 31.3866C1.04151 31.5192 1 31.6706 1 31.8248C1 31.9791 1.04151 32.1305 1.12016 32.2631C1.19882 32.3958 1.31173 32.5048 1.44705 32.5788L3.52624 33.7159C4.27149 34.1225 4.83593 34.7953 5.10684 35.5999L6.50846 39.7483C6.566 39.9186 6.67551 40.0665 6.82156 40.1714C6.96761 40.2762 7.14285 40.3326 7.32262 40.3326C7.50239 40.3326 7.67764 40.2762 7.82369 40.1714C7.96974 40.0665 8.07924 39.9186 8.13679 39.7483L9.53831 35.5999C9.80921 34.7953 10.3737 34.1225 11.119 33.716L13.1981 32.5788C13.3334 32.5048 13.4463 32.3958 13.525 32.2631C13.6036 32.1304 13.6451 31.9791 13.6451 31.8248C13.6451 31.6706 13.6036 31.5192 13.525 31.3866C13.4463 31.2539 13.3334 31.1448 13.1981 31.0708V31.0708ZM10.2942 32.208C9.17002 32.8212 8.31857 33.8361 7.90999 35.0498L7.32262 36.7884L6.73516 35.0498C6.32655 33.8361 5.47515 32.8213 4.35101 32.208L3.65046 31.8249L4.35101 31.4417C5.47516 30.8284 6.32656 29.8136 6.73516 28.5999L7.32262 26.8613L7.90999 28.5999C8.31861 29.8136 9.17005 30.8284 10.2942 31.4417L10.9948 31.8248L10.2942 32.208Z" fill="#27C7D7"/>
<defs>
<clipPath id="clip0_21_6">
<rect width="32" height="32" fill="white" transform="translate(12 14.6226)"/>
</clipPath>
</defs>
</svg>
