<svg width="58" height="57" viewBox="0 0 58 57" fill="none" xmlns="http://www.w3.org/2000/svg">
<rect y="0.568481" width="58" height="55.749" rx="10" fill="white"/>
<mask id="mask0_21_8" style="mask-type:alpha" maskUnits="userSpaceOnUse" x="0" y="0" width="58" height="57">
<rect y="0.568481" width="58" height="56" rx="10" fill="white"/>
</mask>
<g mask="url(#mask0_21_8)">
<path d="M29.2277 34.3698C27.2727 32.4186 25.4546 30.605 23.6366 28.7789C22.7027 27.8408 22.6902 27.5031 23.5494 26.4649C23.5868 26.4149 23.5992 26.3523 23.6117 26.3023C21.1461 25.2392 20.0005 23.4255 20.2745 21.0616C20.4114 19.9234 20.9344 18.9728 21.7438 18.1723C23.1136 16.8089 24.4584 15.4206 25.8406 14.0697C26.6625 13.2692 26.9863 12.3687 26.6998 11.243C26.538 10.6176 26.4259 9.97968 26.3263 9.34178C26.1893 8.37868 26.8119 7.72828 27.7458 7.89088C28.7918 8.06599 29.8378 8.22859 30.8465 8.55379C33.449 9.37931 35.0056 11.1804 35.5286 13.8821C35.541 13.9697 35.5535 14.0447 35.5659 14.1323C35.5659 14.1448 35.5908 14.1698 35.6531 14.2573C35.9021 14.0197 36.1512 13.8071 36.3878 13.5694C37.2594 12.6939 37.7949 12.6939 38.6541 13.5569C40.4348 15.333 42.203 17.1216 43.9837 18.9102C44.2078 19.1354 44.3946 19.298 44.7806 19.1854C46.5115 18.6601 48.1054 19.2604 48.9895 20.7239C49.8487 22.1497 49.6121 23.8883 48.342 25.1891C46.2002 27.3655 44.0335 29.5293 41.8792 31.6932C38.3677 35.2204 34.8935 38.7601 31.3446 42.2372C30.6223 42.9502 29.6635 43.438 28.7794 43.9633C27.696 44.6137 26.5878 45.2391 25.4671 45.8144C23.8981 46.6024 22.5657 47.6781 21.3204 48.9289C11.9937 58.3472 2.64195 67.7155 -6.70975 77.1089C-8.16667 78.5723 -9.94735 78.7849 -11.4914 77.7092C-13.0729 76.6085 -13.4838 74.3572 -12.3756 72.7812C-12.1888 72.506 -11.9522 72.2684 -11.728 72.0307C-1.9156 62.1621 7.88438 52.306 17.6844 42.4749C18.1202 42.0371 18.6307 41.6619 19.1662 41.3617C21.1212 40.236 23.1385 39.1853 25.0686 38.0221C25.8904 37.5218 26.5878 36.8213 27.31 36.1709C27.9451 35.6081 28.5552 35.0077 29.2277 34.3698ZM-9.48662 76.1958C-8.96362 75.783 -8.51533 75.5079 -8.15422 75.1451C1.67067 65.289 11.4831 55.4329 21.308 45.5768C21.5197 45.3642 21.7687 45.139 22.0302 44.9889C24.0226 43.8632 26.0274 42.775 28.0073 41.6368C28.6673 41.2616 29.3397 40.8363 29.8627 40.311C35.3791 34.8076 40.883 29.2667 46.3745 23.7382C46.5489 23.5631 46.7356 23.388 46.8851 23.1879C47.1715 22.7751 47.2462 22.2748 46.91 21.9121C46.6485 21.6244 46.1877 21.3743 45.8266 21.3743C45.5029 21.3743 45.1168 21.6869 44.8553 21.9496C39.1522 27.6532 33.449 33.3692 27.7458 39.0727C27.4843 39.3354 27.1855 39.5605 26.8617 39.7482C25.0686 40.7613 23.263 41.7244 21.4823 42.7625C20.648 43.2503 19.7764 43.7506 19.1039 44.4261C10.3624 53.1565 1.65822 61.9244 -7.05841 70.6674C-8.11686 71.7305 -9.17531 72.7937 -10.2338 73.8443C-10.6322 74.2446 -10.7941 74.7324 -10.5326 75.2077C-10.3209 75.5829 -9.89754 75.8206 -9.48662 76.1958ZM28.9786 10.5801C29.6511 13.0816 28.5926 14.8452 26.8742 16.3962C25.6912 17.4718 24.6079 18.6476 23.4747 19.7858C22.3913 20.8739 22.3166 22.3624 23.2755 23.3505C24.2716 24.3636 25.6788 24.3011 26.7995 23.1754C28.4556 21.5118 30.1118 19.8358 31.7804 18.1848C33.1377 16.8464 33.6109 15.258 32.9634 13.4568C32.3408 11.6682 30.9336 10.8177 28.9786 10.5801ZM40.8581 22.3248C41.3936 21.8495 41.954 21.3367 42.477 20.8739C40.8083 19.1854 39.1646 17.5219 37.5707 15.9084C37.0353 16.4212 36.4874 16.959 36.0142 17.4218C37.6579 19.0853 39.3016 20.7489 40.8581 22.3248ZM32.6147 20.8114C34.2709 22.4749 35.9146 24.1385 37.5209 25.7395C38.0439 25.2266 38.5918 24.7013 39.1148 24.201C37.4711 22.55 35.8274 20.8865 34.2086 19.2604C33.6856 19.7733 33.1502 20.2861 32.6147 20.8114ZM29.3148 24.201C30.9212 25.827 32.5649 27.5031 34.1712 29.1291C34.7067 28.6163 35.2546 28.0909 35.7527 27.6031C34.0965 25.9396 32.4528 24.2886 30.7842 22.6C30.2986 23.1253 29.8005 23.6757 29.3148 24.201ZM27.5342 26.1022C27.0361 26.6025 26.4882 27.1528 25.9901 27.6406C27.5715 29.2416 29.2028 30.8927 30.7967 32.5062C31.3321 31.9933 31.8676 31.4555 32.3906 30.9552C30.7469 29.3167 29.0907 27.6532 27.5342 26.1022Z" fill="#27C7D7"/>
</g>
</svg>
