<svg width="58" height="56" viewBox="0 0 58 56" fill="none" xmlns="http://www.w3.org/2000/svg">
<rect width="58" height="55.749" rx="10" fill="white"/>
<g clip-path="url(#clip0_21_5)">
<mask id="path-2-outside-1_21_5" maskUnits="userSpaceOnUse" x="13.0859" y="7.8421" width="33" height="53" fill="black">
<rect fill="white" x="13.0859" y="7.8421" width="33" height="53"/>
<path d="M24.4351 48.3456C24.4351 47.2464 24.4436 46.206 24.4181 45.1571C24.4181 45.0732 24.2311 44.939 24.1207 44.9306C23.3474 44.8299 22.5826 44.7544 21.7499 44.6621C21.8093 44.0915 21.8688 43.5629 21.9368 42.9756C22.7781 43.0595 23.5853 43.1434 24.4181 43.2357C24.4181 42.0946 24.4181 40.9954 24.4181 39.8459C23.5428 39.7452 22.6676 39.6445 21.7499 39.5438C21.8178 38.9649 21.8773 38.4279 21.9368 37.8657C22.7781 37.958 23.5768 38.0335 24.4096 38.1258C24.4096 37.4629 24.4096 36.8336 24.4096 36.1372C23.6703 36.1372 22.9395 36.1372 22.2087 36.1372C21.24 36.1372 20.9851 35.8855 20.9851 34.9122C20.9851 33.6452 20.9851 32.3698 20.9851 31.0525C20.8066 31.0441 20.6537 31.0273 20.5092 31.0273C19.8719 31.0273 19.2346 31.0273 18.5973 31.0273C17.943 31.0189 17.6796 30.826 17.4926 30.1967C17.2377 29.3492 17.0253 28.4934 16.7364 27.6627C16.354 26.5719 15.9206 25.4979 15.5042 24.4071C14.493 21.7473 13.9407 18.9952 14.1191 16.1592C14.3571 12.4169 17.2632 9.43827 21.0276 8.91805C22.5146 8.70829 23.9337 8.94322 25.3018 9.497C26.9163 10.1347 28.5818 10.4368 30.3238 10.3361C31.6664 10.2522 32.9325 9.86619 34.1817 9.4131C37.7931 8.10416 41.3705 9.13621 43.6563 12.1736C44.7185 13.5916 45.1774 15.2194 45.1519 16.973C45.1094 20.1531 44.3531 23.1569 43.036 26.0517C42.5007 27.2264 42.2373 28.5185 41.8549 29.7603C41.8039 29.9198 41.7699 30.0876 41.7189 30.247C41.532 30.8176 41.2686 31.0105 40.6567 31.0189C39.8665 31.0273 39.0762 31.0189 38.2435 31.0189C38.2435 31.5056 38.2435 31.9335 38.2435 32.3614C38.2435 33.2676 38.2519 34.1822 38.2435 35.0884C38.235 35.8352 37.929 36.1204 37.1728 36.1204C36.3995 36.1204 35.6177 36.1204 34.7935 36.1204C34.7935 37.1357 34.785 38.109 34.8105 39.0823C34.8105 39.1578 35.0229 39.2669 35.1504 39.2837C35.9066 39.3844 36.6629 39.4599 37.4787 39.5522C37.4192 40.1144 37.3597 40.643 37.2917 41.2303C36.459 41.1464 35.6517 41.0625 34.7935 40.9786C34.7935 42.0778 34.785 43.135 34.8105 44.2006C34.8105 44.2761 35.0229 44.3852 35.1504 44.402C35.9066 44.5027 36.6629 44.5782 37.4872 44.6621C37.4277 45.2243 37.3682 45.7613 37.3002 46.3486C36.459 46.2647 35.6517 46.1808 34.802 46.0885C34.802 47.1877 34.7935 48.2281 34.819 49.2769C34.819 49.3608 35.0059 49.4951 35.1164 49.5119C35.8897 49.6126 36.6544 49.6881 37.4872 49.7804C37.4277 50.3509 37.3682 50.8795 37.3002 51.4669C36.459 51.383 35.6517 51.2991 34.819 51.2068C34.819 52.3479 34.819 53.4471 34.819 54.5966C35.6857 54.6973 36.5525 54.7896 37.4787 54.8986C37.4192 55.4608 37.3512 56.0062 37.2917 56.5852C36.425 56.4929 35.6092 56.4173 34.802 56.3083C34.4366 56.2579 34.2496 56.3418 34.1137 56.711C33.7993 57.5753 33.4254 58.4227 33.094 59.2869C32.8985 59.7988 32.5586 60.0253 31.9978 60.0169C30.4088 60.0001 28.8283 60.0001 27.2392 60.0169C26.6784 60.0253 26.3385 59.782 26.1431 59.2785C25.6587 58.0451 25.1404 56.8201 24.656 55.5783C24.537 55.2678 24.3671 55.1504 24.0357 55.1252C23.2879 55.0665 22.5486 54.9658 21.7499 54.8819C21.8093 54.3197 21.8688 53.7911 21.9368 53.2037C22.7696 53.2876 23.5768 53.3716 24.4351 53.4555C24.4351 52.3647 24.4436 51.3242 24.4181 50.2754C24.4181 50.1915 24.2056 50.0489 24.0782 50.0321C23.3219 49.9314 22.5656 49.8559 21.7499 49.772C21.8093 49.2098 21.8688 48.6728 21.9368 48.0855C22.7781 48.1778 23.5853 48.2617 24.4351 48.3456ZM29.576 29.3156C32.958 29.3156 36.3485 29.3073 39.7305 29.324C40.0874 29.324 40.2404 29.2317 40.3423 28.8793C40.6652 27.7382 40.9117 26.5551 41.4045 25.4811C42.6536 22.7794 43.3419 19.9853 43.4354 17.0234C43.5629 13.1553 40.1299 10.0424 36.2465 10.6297C35.4733 10.7472 34.7255 11.0409 33.9777 11.301C32.0488 11.9806 30.0774 12.182 28.0465 11.9638C26.6954 11.8128 25.4378 11.3597 24.1716 10.915C20.2628 9.53057 16.0735 12.2575 15.8356 16.3521C15.7082 18.5085 16.0311 20.6314 16.7364 22.6703C17.4671 24.7931 18.4358 26.8404 18.9542 29.0388C19.0307 29.366 19.2516 29.3156 19.4725 29.3156C22.8375 29.3156 26.2025 29.3156 29.576 29.3156ZM22.7356 34.4004C27.3497 34.4004 31.9213 34.4004 36.493 34.4004C36.493 33.2676 36.493 32.1601 36.493 31.0441C31.8873 31.0441 27.3242 31.0441 22.7356 31.0441C22.7356 32.1768 22.7356 33.276 22.7356 34.4004ZM33.0685 49.3021C33.0685 48.2868 33.0515 47.3387 33.077 46.3906C33.0855 45.9962 32.9665 45.8703 32.5671 45.8284C31.386 45.7277 30.2048 45.5767 29.0237 45.4508C28.089 45.3501 27.1458 45.2578 26.177 45.1571C26.177 46.2983 26.177 47.389 26.177 48.5469C28.4629 48.7987 30.7317 49.042 33.0685 49.3021ZM33.0685 44.1838C33.0685 43.1266 33.0515 42.1533 33.077 41.18C33.0855 40.8444 32.958 40.7604 32.6436 40.7269C31.1821 40.5759 29.7205 40.408 28.2589 40.2486C27.5791 40.1731 26.8908 40.106 26.177 40.0389C26.177 41.18 26.177 42.2792 26.177 43.4287C28.4629 43.6804 30.7317 43.9237 33.0685 44.1838ZM33.043 54.412C33.043 53.2625 33.043 52.1549 33.043 51.0138C30.7487 50.7621 28.4799 50.5187 26.1685 50.267C26.1685 51.383 26.16 52.4234 26.1855 53.4722C26.1855 53.5561 26.4065 53.6904 26.5424 53.7072C27.4092 53.8163 28.2844 53.9002 29.1512 54.0008C30.4258 54.1267 31.7089 54.2693 33.043 54.412ZM33.043 36.154C30.7402 36.154 28.4714 36.154 26.1855 36.154C26.1855 36.8756 26.1855 37.572 26.1855 38.3104C28.4714 38.5621 30.7402 38.8138 33.043 39.0655C33.043 38.0671 33.043 37.1273 33.043 36.154ZM32.5247 56.0817C30.4768 55.8552 28.4884 55.637 26.432 55.4105C26.8144 56.3586 27.1543 57.2312 27.5281 58.0871C27.5706 58.1878 27.7491 58.3052 27.868 58.3052C29.0407 58.322 30.2133 58.322 31.386 58.3052C31.488 58.3052 31.6409 58.2297 31.6749 58.1458C31.9638 57.4913 32.2272 56.8201 32.5247 56.0817Z"/>
</mask>
<path d="M24.4351 48.3456C24.4351 47.2464 24.4436 46.206 24.4181 45.1571C24.4181 45.0732 24.2311 44.939 24.1207 44.9306C23.3474 44.8299 22.5826 44.7544 21.7499 44.6621C21.8093 44.0915 21.8688 43.5629 21.9368 42.9756C22.7781 43.0595 23.5853 43.1434 24.4181 43.2357C24.4181 42.0946 24.4181 40.9954 24.4181 39.8459C23.5428 39.7452 22.6676 39.6445 21.7499 39.5438C21.8178 38.9649 21.8773 38.4279 21.9368 37.8657C22.7781 37.958 23.5768 38.0335 24.4096 38.1258C24.4096 37.4629 24.4096 36.8336 24.4096 36.1372C23.6703 36.1372 22.9395 36.1372 22.2087 36.1372C21.24 36.1372 20.9851 35.8855 20.9851 34.9122C20.9851 33.6452 20.9851 32.3698 20.9851 31.0525C20.8066 31.0441 20.6537 31.0273 20.5092 31.0273C19.8719 31.0273 19.2346 31.0273 18.5973 31.0273C17.943 31.0189 17.6796 30.826 17.4926 30.1967C17.2377 29.3492 17.0253 28.4934 16.7364 27.6627C16.354 26.5719 15.9206 25.4979 15.5042 24.4071C14.493 21.7473 13.9407 18.9952 14.1191 16.1592C14.3571 12.4169 17.2632 9.43827 21.0276 8.91805C22.5146 8.70829 23.9337 8.94322 25.3018 9.497C26.9163 10.1347 28.5818 10.4368 30.3238 10.3361C31.6664 10.2522 32.9325 9.86619 34.1817 9.4131C37.7931 8.10416 41.3705 9.13621 43.6563 12.1736C44.7185 13.5916 45.1774 15.2194 45.1519 16.973C45.1094 20.1531 44.3531 23.1569 43.036 26.0517C42.5007 27.2264 42.2373 28.5185 41.8549 29.7603C41.8039 29.9198 41.7699 30.0876 41.7189 30.247C41.532 30.8176 41.2686 31.0105 40.6567 31.0189C39.8665 31.0273 39.0762 31.0189 38.2435 31.0189C38.2435 31.5056 38.2435 31.9335 38.2435 32.3614C38.2435 33.2676 38.2519 34.1822 38.2435 35.0884C38.235 35.8352 37.929 36.1204 37.1728 36.1204C36.3995 36.1204 35.6177 36.1204 34.7935 36.1204C34.7935 37.1357 34.785 38.109 34.8105 39.0823C34.8105 39.1578 35.0229 39.2669 35.1504 39.2837C35.9066 39.3844 36.6629 39.4599 37.4787 39.5522C37.4192 40.1144 37.3597 40.643 37.2917 41.2303C36.459 41.1464 35.6517 41.0625 34.7935 40.9786C34.7935 42.0778 34.785 43.135 34.8105 44.2006C34.8105 44.2761 35.0229 44.3852 35.1504 44.402C35.9066 44.5027 36.6629 44.5782 37.4872 44.6621C37.4277 45.2243 37.3682 45.7613 37.3002 46.3486C36.459 46.2647 35.6517 46.1808 34.802 46.0885C34.802 47.1877 34.7935 48.2281 34.819 49.2769C34.819 49.3608 35.0059 49.4951 35.1164 49.5119C35.8897 49.6126 36.6544 49.6881 37.4872 49.7804C37.4277 50.3509 37.3682 50.8795 37.3002 51.4669C36.459 51.383 35.6517 51.2991 34.819 51.2068C34.819 52.3479 34.819 53.4471 34.819 54.5966C35.6857 54.6973 36.5525 54.7896 37.4787 54.8986C37.4192 55.4608 37.3512 56.0062 37.2917 56.5852C36.425 56.4929 35.6092 56.4173 34.802 56.3083C34.4366 56.2579 34.2496 56.3418 34.1137 56.711C33.7993 57.5753 33.4254 58.4227 33.094 59.2869C32.8985 59.7988 32.5586 60.0253 31.9978 60.0169C30.4088 60.0001 28.8283 60.0001 27.2392 60.0169C26.6784 60.0253 26.3385 59.782 26.1431 59.2785C25.6587 58.0451 25.1404 56.8201 24.656 55.5783C24.537 55.2678 24.3671 55.1504 24.0357 55.1252C23.2879 55.0665 22.5486 54.9658 21.7499 54.8819C21.8093 54.3197 21.8688 53.7911 21.9368 53.2037C22.7696 53.2876 23.5768 53.3716 24.4351 53.4555C24.4351 52.3647 24.4436 51.3242 24.4181 50.2754C24.4181 50.1915 24.2056 50.0489 24.0782 50.0321C23.3219 49.9314 22.5656 49.8559 21.7499 49.772C21.8093 49.2098 21.8688 48.6728 21.9368 48.0855C22.7781 48.1778 23.5853 48.2617 24.4351 48.3456ZM29.576 29.3156C32.958 29.3156 36.3485 29.3073 39.7305 29.324C40.0874 29.324 40.2404 29.2317 40.3423 28.8793C40.6652 27.7382 40.9117 26.5551 41.4045 25.4811C42.6536 22.7794 43.3419 19.9853 43.4354 17.0234C43.5629 13.1553 40.1299 10.0424 36.2465 10.6297C35.4733 10.7472 34.7255 11.0409 33.9777 11.301C32.0488 11.9806 30.0774 12.182 28.0465 11.9638C26.6954 11.8128 25.4378 11.3597 24.1716 10.915C20.2628 9.53057 16.0735 12.2575 15.8356 16.3521C15.7082 18.5085 16.0311 20.6314 16.7364 22.6703C17.4671 24.7931 18.4358 26.8404 18.9542 29.0388C19.0307 29.366 19.2516 29.3156 19.4725 29.3156C22.8375 29.3156 26.2025 29.3156 29.576 29.3156ZM22.7356 34.4004C27.3497 34.4004 31.9213 34.4004 36.493 34.4004C36.493 33.2676 36.493 32.1601 36.493 31.0441C31.8873 31.0441 27.3242 31.0441 22.7356 31.0441C22.7356 32.1768 22.7356 33.276 22.7356 34.4004ZM33.0685 49.3021C33.0685 48.2868 33.0515 47.3387 33.077 46.3906C33.0855 45.9962 32.9665 45.8703 32.5671 45.8284C31.386 45.7277 30.2048 45.5767 29.0237 45.4508C28.089 45.3501 27.1458 45.2578 26.177 45.1571C26.177 46.2983 26.177 47.389 26.177 48.5469C28.4629 48.7987 30.7317 49.042 33.0685 49.3021ZM33.0685 44.1838C33.0685 43.1266 33.0515 42.1533 33.077 41.18C33.0855 40.8444 32.958 40.7604 32.6436 40.7269C31.1821 40.5759 29.7205 40.408 28.2589 40.2486C27.5791 40.1731 26.8908 40.106 26.177 40.0389C26.177 41.18 26.177 42.2792 26.177 43.4287C28.4629 43.6804 30.7317 43.9237 33.0685 44.1838ZM33.043 54.412C33.043 53.2625 33.043 52.1549 33.043 51.0138C30.7487 50.7621 28.4799 50.5187 26.1685 50.267C26.1685 51.383 26.16 52.4234 26.1855 53.4722C26.1855 53.5561 26.4065 53.6904 26.5424 53.7072C27.4092 53.8163 28.2844 53.9002 29.1512 54.0008C30.4258 54.1267 31.7089 54.2693 33.043 54.412ZM33.043 36.154C30.7402 36.154 28.4714 36.154 26.1855 36.154C26.1855 36.8756 26.1855 37.572 26.1855 38.3104C28.4714 38.5621 30.7402 38.8138 33.043 39.0655C33.043 38.0671 33.043 37.1273 33.043 36.154ZM32.5247 56.0817C30.4768 55.8552 28.4884 55.637 26.432 55.4105C26.8144 56.3586 27.1543 57.2312 27.5281 58.0871C27.5706 58.1878 27.7491 58.3052 27.868 58.3052C29.0407 58.322 30.2133 58.322 31.386 58.3052C31.488 58.3052 31.6409 58.2297 31.6749 58.1458C31.9638 57.4913 32.2272 56.8201 32.5247 56.0817Z" fill="#27C7D7"/>
<path d="M24.4351 48.3456C24.4351 47.2464 24.4436 46.206 24.4181 45.1571C24.4181 45.0732 24.2311 44.939 24.1207 44.9306C23.3474 44.8299 22.5826 44.7544 21.7499 44.6621C21.8093 44.0915 21.8688 43.5629 21.9368 42.9756C22.7781 43.0595 23.5853 43.1434 24.4181 43.2357C24.4181 42.0946 24.4181 40.9954 24.4181 39.8459C23.5428 39.7452 22.6676 39.6445 21.7499 39.5438C21.8178 38.9649 21.8773 38.4279 21.9368 37.8657C22.7781 37.958 23.5768 38.0335 24.4096 38.1258C24.4096 37.4629 24.4096 36.8336 24.4096 36.1372C23.6703 36.1372 22.9395 36.1372 22.2087 36.1372C21.24 36.1372 20.9851 35.8855 20.9851 34.9122C20.9851 33.6452 20.9851 32.3698 20.9851 31.0525C20.8066 31.0441 20.6537 31.0273 20.5092 31.0273C19.8719 31.0273 19.2346 31.0273 18.5973 31.0273C17.943 31.0189 17.6796 30.826 17.4926 30.1967C17.2377 29.3492 17.0253 28.4934 16.7364 27.6627C16.354 26.5719 15.9206 25.4979 15.5042 24.4071C14.493 21.7473 13.9407 18.9952 14.1191 16.1592C14.3571 12.4169 17.2632 9.43827 21.0276 8.91805C22.5146 8.70829 23.9337 8.94322 25.3018 9.497C26.9163 10.1347 28.5818 10.4368 30.3238 10.3361C31.6664 10.2522 32.9325 9.86619 34.1817 9.4131C37.7931 8.10416 41.3705 9.13621 43.6563 12.1736C44.7185 13.5916 45.1774 15.2194 45.1519 16.973C45.1094 20.1531 44.3531 23.1569 43.036 26.0517C42.5007 27.2264 42.2373 28.5185 41.8549 29.7603C41.8039 29.9198 41.7699 30.0876 41.7189 30.247C41.532 30.8176 41.2686 31.0105 40.6567 31.0189C39.8665 31.0273 39.0762 31.0189 38.2435 31.0189C38.2435 31.5056 38.2435 31.9335 38.2435 32.3614C38.2435 33.2676 38.2519 34.1822 38.2435 35.0884C38.235 35.8352 37.929 36.1204 37.1728 36.1204C36.3995 36.1204 35.6177 36.1204 34.7935 36.1204C34.7935 37.1357 34.785 38.109 34.8105 39.0823C34.8105 39.1578 35.0229 39.2669 35.1504 39.2837C35.9066 39.3844 36.6629 39.4599 37.4787 39.5522C37.4192 40.1144 37.3597 40.643 37.2917 41.2303C36.459 41.1464 35.6517 41.0625 34.7935 40.9786C34.7935 42.0778 34.785 43.135 34.8105 44.2006C34.8105 44.2761 35.0229 44.3852 35.1504 44.402C35.9066 44.5027 36.6629 44.5782 37.4872 44.6621C37.4277 45.2243 37.3682 45.7613 37.3002 46.3486C36.459 46.2647 35.6517 46.1808 34.802 46.0885C34.802 47.1877 34.7935 48.2281 34.819 49.2769C34.819 49.3608 35.0059 49.4951 35.1164 49.5119C35.8897 49.6126 36.6544 49.6881 37.4872 49.7804C37.4277 50.3509 37.3682 50.8795 37.3002 51.4669C36.459 51.383 35.6517 51.2991 34.819 51.2068C34.819 52.3479 34.819 53.4471 34.819 54.5966C35.6857 54.6973 36.5525 54.7896 37.4787 54.8986C37.4192 55.4608 37.3512 56.0062 37.2917 56.5852C36.425 56.4929 35.6092 56.4173 34.802 56.3083C34.4366 56.2579 34.2496 56.3418 34.1137 56.711C33.7993 57.5753 33.4254 58.4227 33.094 59.2869C32.8985 59.7988 32.5586 60.0253 31.9978 60.0169C30.4088 60.0001 28.8283 60.0001 27.2392 60.0169C26.6784 60.0253 26.3385 59.782 26.1431 59.2785C25.6587 58.0451 25.1404 56.8201 24.656 55.5783C24.537 55.2678 24.3671 55.1504 24.0357 55.1252C23.2879 55.0665 22.5486 54.9658 21.7499 54.8819C21.8093 54.3197 21.8688 53.7911 21.9368 53.2037C22.7696 53.2876 23.5768 53.3716 24.4351 53.4555C24.4351 52.3647 24.4436 51.3242 24.4181 50.2754C24.4181 50.1915 24.2056 50.0489 24.0782 50.0321C23.3219 49.9314 22.5656 49.8559 21.7499 49.772C21.8093 49.2098 21.8688 48.6728 21.9368 48.0855C22.7781 48.1778 23.5853 48.2617 24.4351 48.3456ZM29.576 29.3156C32.958 29.3156 36.3485 29.3073 39.7305 29.324C40.0874 29.324 40.2404 29.2317 40.3423 28.8793C40.6652 27.7382 40.9117 26.5551 41.4045 25.4811C42.6536 22.7794 43.3419 19.9853 43.4354 17.0234C43.5629 13.1553 40.1299 10.0424 36.2465 10.6297C35.4733 10.7472 34.7255 11.0409 33.9777 11.301C32.0488 11.9806 30.0774 12.182 28.0465 11.9638C26.6954 11.8128 25.4378 11.3597 24.1716 10.915C20.2628 9.53057 16.0735 12.2575 15.8356 16.3521C15.7082 18.5085 16.0311 20.6314 16.7364 22.6703C17.4671 24.7931 18.4358 26.8404 18.9542 29.0388C19.0307 29.366 19.2516 29.3156 19.4725 29.3156C22.8375 29.3156 26.2025 29.3156 29.576 29.3156ZM22.7356 34.4004C27.3497 34.4004 31.9213 34.4004 36.493 34.4004C36.493 33.2676 36.493 32.1601 36.493 31.0441C31.8873 31.0441 27.3242 31.0441 22.7356 31.0441C22.7356 32.1768 22.7356 33.276 22.7356 34.4004ZM33.0685 49.3021C33.0685 48.2868 33.0515 47.3387 33.077 46.3906C33.0855 45.9962 32.9665 45.8703 32.5671 45.8284C31.386 45.7277 30.2048 45.5767 29.0237 45.4508C28.089 45.3501 27.1458 45.2578 26.177 45.1571C26.177 46.2983 26.177 47.389 26.177 48.5469C28.4629 48.7987 30.7317 49.042 33.0685 49.3021ZM33.0685 44.1838C33.0685 43.1266 33.0515 42.1533 33.077 41.18C33.0855 40.8444 32.958 40.7604 32.6436 40.7269C31.1821 40.5759 29.7205 40.408 28.2589 40.2486C27.5791 40.1731 26.8908 40.106 26.177 40.0389C26.177 41.18 26.177 42.2792 26.177 43.4287C28.4629 43.6804 30.7317 43.9237 33.0685 44.1838ZM33.043 54.412C33.043 53.2625 33.043 52.1549 33.043 51.0138C30.7487 50.7621 28.4799 50.5187 26.1685 50.267C26.1685 51.383 26.16 52.4234 26.1855 53.4722C26.1855 53.5561 26.4065 53.6904 26.5424 53.7072C27.4092 53.8163 28.2844 53.9002 29.1512 54.0008C30.4258 54.1267 31.7089 54.2693 33.043 54.412ZM33.043 36.154C30.7402 36.154 28.4714 36.154 26.1855 36.154C26.1855 36.8756 26.1855 37.572 26.1855 38.3104C28.4714 38.5621 30.7402 38.8138 33.043 39.0655C33.043 38.0671 33.043 37.1273 33.043 36.154ZM32.5247 56.0817C30.4768 55.8552 28.4884 55.637 26.432 55.4105C26.8144 56.3586 27.1543 57.2312 27.5281 58.0871C27.5706 58.1878 27.7491 58.3052 27.868 58.3052C29.0407 58.322 30.2133 58.322 31.386 58.3052C31.488 58.3052 31.6409 58.2297 31.6749 58.1458C31.9638 57.4913 32.2272 56.8201 32.5247 56.0817Z" stroke="#27C7D7" mask="url(#path-2-outside-1_21_5)"/>
</g>
<defs>
<clipPath id="clip0_21_5">
<rect width="34" height="56" fill="white" transform="translate(13)"/>
</clipPath>
</defs>
</svg>
