<svg width="58" height="56" viewBox="0 0 58 56" fill="none" xmlns="http://www.w3.org/2000/svg">
<rect width="58" height="55.7566" rx="10" fill="white"/>
<mask id="mask0_21_7" style="mask-type:alpha" maskUnits="userSpaceOnUse" x="0" y="0" width="58" height="56">
<rect width="58" height="55.9999" rx="10" fill="white"/>
</mask>
<g mask="url(#mask0_21_7)">
<path d="M57.3991 39.0969C52.9398 37.2205 48.3071 35.7905 43.5683 34.8277L44.3468 30.433L45.6944 23.2208C46.1612 20.8299 45.9123 18.3536 44.9791 16.1046C44.0458 13.8556 42.4701 11.9349 40.4509 10.5849C37.93 8.89154 34.6169 8.75632 31.8055 10.232C30.9936 10.648 30.0951 10.8648 29.1837 10.8648C28.2723 10.8648 27.3739 10.648 26.562 10.232C23.7504 8.75655 20.4377 8.89165 17.9163 10.5849C15.8979 11.934 14.3226 13.8536 13.3891 16.1012C12.4557 18.3489 12.206 20.8239 12.6716 23.2139L14.0205 30.4333L14.7866 34.7577C9.98418 35.7083 5.28835 37.1385 0.769015 39.0269L0.603096 39.0961C0.424539 39.1707 0.271962 39.2966 0.164625 39.4582C0.0572874 39.6197 2.10396e-06 39.8096 0 40.0038V55.0172C0 55.2779 0.103093 55.5279 0.286601 55.7123C0.470108 55.8966 0.718997 56.0002 0.978516 56.0002H57.0215C57.281 56.0002 57.5299 55.8966 57.7134 55.7123C57.8969 55.5279 58 55.2779 58 55.0172V40.0038C58 39.81 57.9429 39.6205 57.836 39.4591C57.7291 39.2978 57.5771 39.1718 57.3991 39.0969ZM21.5657 30.1149L21.5627 30.0898C21.8101 30.0732 22.042 29.9627 22.2114 29.7809C22.3808 29.599 22.4751 29.3593 22.4752 29.1102V25.4476C22.4764 24.389 22.8955 23.3742 23.6407 22.6257C24.3858 21.8772 25.3961 21.4562 26.4499 21.4549H31.5501C32.6039 21.4562 33.6142 21.8772 34.3593 22.6257C35.1045 23.3742 35.5236 24.389 35.5248 25.4476V29.0588C35.5249 29.3022 35.6148 29.537 35.7773 29.7177C35.9398 29.8983 36.1632 30.012 36.4043 30.0367L36.4008 30.0675C38.3578 30.2916 40.3231 30.6106 42.2556 31.0172L39.0716 48.9912C39.0245 49.2458 38.9086 49.4824 38.7367 49.6753C38.5648 49.8681 38.3435 50.0099 38.0968 50.0849C37.8502 50.16 37.5877 50.1655 37.3382 50.1009C37.0886 50.0363 36.8615 49.9041 36.6817 49.7186C35.0846 48.0787 34.1925 45.8743 34.1975 43.5802V40.5391C34.2024 38.0884 33.4289 35.6999 31.9894 33.7212C31.6695 33.2746 31.2479 32.9114 30.7599 32.6618C30.2718 32.4122 29.7314 32.2834 29.1838 32.2863C28.6361 32.2834 28.0955 32.4122 27.6074 32.6618C27.1193 32.9114 26.6977 33.2746 26.3778 33.7212C24.9384 35.6999 24.1649 38.0884 24.1699 40.5391V43.5801C24.1748 45.8743 23.2827 48.0787 21.6856 49.7186C21.5062 49.9036 21.2798 50.0356 21.0309 50.1004C20.7821 50.1652 20.5203 50.1602 20.2741 50.086C20.0279 50.0118 19.8066 49.8712 19.6343 49.6796C19.4621 49.4879 19.3454 49.2524 19.297 48.9988L16.1117 31.0174C17.9127 30.6384 19.7432 30.3354 21.5657 30.1149ZM19.0041 12.2191C20.9301 10.9255 23.4786 10.8318 25.6557 11.9744C26.7474 12.5371 27.9567 12.8306 29.1837 12.8306C30.4107 12.8306 31.6201 12.5371 32.7117 11.9744C34.8887 10.8316 37.4372 10.9256 39.3632 12.2191C41.062 13.3551 42.3876 14.9714 43.1724 16.8638C43.9571 18.7562 44.1659 20.8398 43.7723 22.8513L42.6078 29.0836C40.9145 28.7286 39.1974 28.4384 37.4819 28.2187V25.4476C37.4801 23.8678 36.8546 22.3533 35.7425 21.2363C34.6305 20.1192 33.1228 19.4909 31.5501 19.4891H26.4499C24.8772 19.4909 23.3695 20.1192 22.2575 21.2363C21.1454 22.3533 20.5199 23.8678 20.5181 25.4476V28.2669C18.9259 28.4801 17.3322 28.7543 15.7595 29.084L14.5937 22.8444C14.2013 20.8338 14.4109 18.7515 15.1959 16.8604C15.9809 14.9693 17.306 13.3542 19.0041 12.2191Z" fill="#27C7D7"/>
</g>
</svg>
