<svg width="58" height="57" viewBox="0 0 58 57" fill="none" xmlns="http://www.w3.org/2000/svg">
<rect y="0.622559" width="58" height="56" rx="10" fill="white"/>
<path d="M50.4279 40.0368L47.8688 33.7929C45.548 28.1517 41.3894 23.4601 36.0676 20.4791L30.7488 17.5088L26.6279 11.6235L26.6271 11.6223L23.4427 7.07452C22.4582 5.67199 20.9576 4.71722 19.2701 4.41967C17.5826 4.12213 15.8459 4.5061 14.4412 5.48736L14.1885 5.6643L14.1874 5.66516C12.7166 6.69541 11.7153 8.26767 11.4036 10.0361C11.092 11.8046 11.4955 13.6244 12.5255 15.0954L20.5729 26.5882C20.6531 26.7022 20.7561 26.7982 20.8756 26.87L21.4921 30.685C22.4732 36.7055 25.4596 42.2179 29.9669 46.3281L34.9589 50.8683C35.5675 51.4266 36.3489 51.7598 37.1731 51.8122C37.9974 51.8647 38.8147 51.6334 39.4892 51.1568H39.4893C39.9359 50.844 40.3065 50.4347 40.5735 49.9593C40.8406 49.4839 40.9972 48.9545 41.0318 48.4103C41.0665 47.8661 40.9782 47.3211 40.7737 46.8157C40.5691 46.3102 40.2534 45.8573 39.85 45.4904L34.944 41.0284C31.566 37.948 29.3278 33.8166 28.5925 29.3044L27.7542 24.1171L32.342 26.679C36.3305 28.9133 39.4472 32.4295 41.1866 36.6573L43.7016 42.7935C44.0672 43.6855 44.7721 44.3957 45.6613 44.7679C46.1016 44.9522 46.5739 45.048 47.0512 45.0498C47.5285 45.0516 48.0015 44.9593 48.4431 44.7783C48.8848 44.5973 49.2865 44.3311 49.6252 43.9948C49.964 43.6586 50.2332 43.2589 50.4175 42.8186C50.6018 42.3783 50.6976 41.906 50.6994 41.4287C50.7012 40.9514 50.6089 40.4784 50.4279 40.0368L50.4279 40.0368ZM21.8044 8.22173L23.4883 10.6266L20.3988 12.79L20.2494 12.5767L16.1855 6.77282C17.1414 6.30651 18.2321 6.19624 19.262 6.4618C20.2918 6.72736 21.1932 7.35135 21.8044 8.22173V8.22173ZM22.8011 26.2488L25.7401 24.191L26.6181 29.6235C26.9026 31.3765 27.397 33.0889 28.0905 34.7238L25.3573 36.6376C24.4537 34.6393 23.818 32.5305 23.4665 30.3658L22.8011 26.2488ZM33.317 24.9328L28.3655 22.1678C27.8276 21.8698 27.2169 21.7284 26.6027 21.7596C25.9885 21.7908 25.3954 21.9934 24.8904 22.3444L21.6376 24.622L14.1638 13.9482C13.5379 13.0535 13.2374 11.9714 13.3124 10.882C13.3875 9.79269 13.8336 8.76196 14.5763 7.96158L19.334 14.7563C19.4862 14.9736 19.7184 15.1215 19.9796 15.1675C20.2407 15.2136 20.5095 15.154 20.7268 15.0019L24.6355 12.265L29.242 18.8437C29.3285 18.9673 29.4419 19.0697 29.5736 19.1432L35.0925 22.2253C37.0065 23.2959 38.7706 24.6146 40.3393 26.1471L37.6062 28.0609C36.3071 26.8499 34.867 25.7997 33.317 24.9328V24.9328Z" fill="#27C7D7"/>
</svg>
