<svg width="58" height="56" viewBox="0 0 58 56" fill="none" xmlns="http://www.w3.org/2000/svg">
<rect width="58" height="56" rx="10" fill="white"/>
<path d="M15.6744 26.3481L15.6745 26.3484C15.9278 27.0421 16.1698 27.7067 16.3488 28.3218C16.5284 28.9387 16.6394 29.4886 16.6394 29.9533C16.6394 32.4238 16.8928 35.7578 17.6263 38.4823C17.9926 39.843 18.4837 41.0708 19.1367 41.9636C19.7924 42.8601 20.6317 43.4433 21.684 43.4433C23.0809 43.4433 23.9813 42.6292 24.6129 41.4995C25.2353 40.3862 25.6237 38.9218 25.9946 37.5232L25.999 37.5069C25.999 37.5068 25.999 37.5068 25.999 37.5067C26.3533 36.1741 26.6887 34.9165 27.1631 33.9895C27.6362 33.0648 28.2069 32.5446 29.0067 32.5446C29.3664 32.5446 29.6531 32.6409 29.8964 32.8194C30.1441 33.0011 30.3613 33.2787 30.5595 33.6629C30.9599 34.439 31.2499 35.5813 31.5828 37.0511C31.5829 37.0511 31.5829 37.0512 31.5829 37.0512L31.5865 37.0674C31.9087 38.492 32.2629 40.0587 32.9422 41.2675C33.2856 41.8785 33.7182 42.4102 34.2826 42.7888C34.8497 43.1692 35.5363 43.386 36.3707 43.386C37.6312 43.386 38.5693 42.6216 39.2576 41.518C39.9442 40.4173 40.4084 38.9422 40.7249 37.4211C41.3588 34.3747 41.4167 31.0582 41.4167 29.9533C41.4167 29.5057 41.5244 28.9652 41.6989 28.3537C41.8728 27.7443 42.1076 27.0821 42.3529 26.3917L42.3529 26.3916L42.3677 26.3502C43.4536 23.2919 44.8593 19.3331 42.286 15.8722C40.6486 13.6686 38.9021 12.6006 36.7987 12.6006C35.4696 12.6006 34.2069 13.0164 32.9178 13.4408L32.8965 13.4478L32.8964 13.4479C31.5833 13.8807 30.2706 14.31 28.904 14.31C27.561 14.31 26.2412 13.872 24.9206 13.4309L24.9142 13.4287C23.6002 12.9881 22.3137 12.5566 20.9734 12.5566C18.8632 12.5566 17.1606 13.6491 15.6192 15.8945L15.6192 15.8946C13.1698 19.4656 14.5723 23.3194 15.658 26.303L15.6744 26.3481ZM16.9102 16.7814L16.9102 16.7814C18.1964 14.907 19.4468 14.1246 20.972 14.1246C22.045 14.1246 23.1748 14.4991 24.424 14.9133L24.4361 14.9173C25.8227 15.3808 27.2979 15.874 28.904 15.874C30.5304 15.874 31.9953 15.3908 33.3732 14.9364L33.3863 14.9321L33.3864 14.932C34.6157 14.5263 35.7291 14.1633 36.7987 14.1633C38.3456 14.1633 39.6452 14.9425 41.0274 16.8024L41.2167 16.6618L41.0274 16.8024C42.0572 18.1881 42.2884 19.6945 42.1279 21.2368C41.9663 22.7885 41.4104 24.3593 40.8764 25.8644L40.8674 25.8896C40.3545 27.3326 39.8487 28.7556 39.8487 29.9506C39.8487 32.8552 39.5579 35.8605 38.9536 38.1317C38.651 39.269 38.2741 40.2049 37.828 40.8508C37.3815 41.4973 36.8946 41.8153 36.3707 41.8153C35.8786 41.8153 35.4865 41.6955 35.1597 41.4786C34.8302 41.2598 34.5517 40.9318 34.3059 40.4919C33.8093 39.6027 33.4754 38.3124 33.1105 36.7021L33.1105 36.702L33.1045 36.6755C32.7999 35.3335 32.4801 33.9245 31.9021 32.852C31.6089 32.308 31.2425 31.8367 30.7653 31.5015C30.2848 31.164 29.7054 30.974 29.0054 30.974C27.5303 30.974 26.5764 31.8471 25.912 33.0281C25.2568 34.1927 24.8556 35.7022 24.4894 37.08L24.4837 37.1011L24.4837 37.1011C24.1428 38.3849 23.8201 39.5964 23.3739 40.4894C22.9268 41.3841 22.4 41.874 21.6827 41.874C21.2218 41.874 20.7629 41.5692 20.3227 40.9227C19.8858 40.281 19.5018 39.3498 19.1852 38.2143C18.5529 35.9467 18.206 32.9274 18.206 29.952C18.206 28.7205 17.6863 27.2942 17.1589 25.8469L17.1456 25.8104L17.1456 25.8103C16.0693 22.8586 14.9263 19.6722 16.9102 16.7814Z" fill="#27C7D7" stroke="#27C7D7" stroke-width="0.5"/>
</svg>
