<svg width="13" height="20" viewBox="0 0 13 20" fill="none" xmlns="http://www.w3.org/2000/svg">
<path d="M6.81363 0.57019C6.95364 0.586029 7.09514 0.5987 7.23515 0.616122C8.23457 0.736496 9.164 1.07861 10.0055 1.66305C11.5352 2.72424 12.4885 4.21149 12.8698 6.10895C12.9859 6.6839 13.0306 7.26834 12.98 7.85595C12.9383 8.33586 12.8206 8.79993 12.6747 9.2545C12.3842 10.1668 11.9895 11.0284 11.5546 11.8695C10.7726 13.3868 9.87149 14.8234 8.92419 16.2282C8.16308 17.356 7.3692 18.4583 6.54106 19.5306C6.53212 19.5433 6.5217 19.5544 6.50829 19.5702C6.49489 19.5575 6.48148 19.5464 6.47105 19.5338C4.82073 17.3765 3.2717 15.1417 1.92671 12.7533C1.38902 11.795 0.894519 10.8114 0.507259 9.77242C0.301714 9.21966 0.130426 8.6558 0.0455271 8.06661C-0.0125618 7.67064 -0.00660396 7.27151 0.0261641 6.87396C0.108084 5.89355 0.365761 4.96857 0.826004 4.11487C1.76436 2.36787 3.15701 1.25125 4.99053 0.760254C5.36141 0.660471 5.73973 0.605035 6.12252 0.582861C6.14486 0.581277 6.16572 0.574942 6.18806 0.57019C6.39658 0.57019 6.60511 0.57019 6.81363 0.57019ZM8.93909 6.85812C8.93462 5.40889 7.84285 4.25425 6.48297 4.259C5.14246 4.26217 4.05515 5.42789 4.05813 6.85812C4.06111 8.29785 5.15735 9.45407 6.51425 9.4509C7.85178 9.44615 8.94207 8.28043 8.93909 6.85812Z" fill="#22B8C7"/>
</svg>
