<svg width="14" height="20" viewBox="0 0 14 20" fill="none" xmlns="http://www.w3.org/2000/svg">
<g clip-path="url(#clip0_12_28)">
<path d="M7.81217 0.755371C7.95217 0.77121 8.09367 0.783881 8.23368 0.801303C9.23311 0.921677 10.1625 1.26379 11.0041 1.84824C12.5338 2.90942 13.487 4.39667 13.8683 6.29413C13.9845 6.86908 14.0292 7.45352 13.9785 8.04113C13.9368 8.52104 13.8192 8.98511 13.6732 9.43968C13.3827 10.352 12.988 11.2136 12.5531 12.0546C11.7711 13.572 10.87 15.0085 9.92273 16.4134C9.16162 17.5411 8.36773 18.6435 7.53959 19.7158C7.53066 19.7284 7.52023 19.7395 7.50683 19.7554C7.49342 19.7427 7.48002 19.7316 7.46959 19.7189C5.81927 17.5617 4.27023 15.3269 2.92525 12.9384C2.38755 11.9802 1.89305 10.9966 1.50579 9.95761C1.30025 9.40484 1.12896 8.84098 1.04406 8.25179C0.985973 7.85582 0.991931 7.45669 1.0247 7.05914C1.10662 6.07873 1.3643 5.15375 1.82454 4.30005C2.7629 2.55305 4.15554 1.43643 5.98907 0.945434C6.35994 0.845651 6.73827 0.790216 7.12106 0.768042C7.1434 0.766458 7.16425 0.760123 7.18659 0.755371C7.39512 0.755371 7.60364 0.755371 7.81217 0.755371ZM9.93762 7.0433C9.93316 5.59407 8.84138 4.43943 7.48151 4.44418C6.14099 4.44735 5.05369 5.61307 5.05667 7.0433C5.05964 8.48303 6.15589 9.63925 7.51278 9.63608C8.85032 9.63133 9.9406 8.46561 9.93762 7.0433Z" fill="white"/>
</g>
<defs>
<clipPath id="clip0_12_28">
<rect width="13" height="19" fill="white" transform="translate(0.998535 0.755371)"/>
</clipPath>
</defs>
</svg>
