<svg width="19" height="20" viewBox="0 0 19 20" fill="none" xmlns="http://www.w3.org/2000/svg">
<g clip-path="url(#clip0_12_292)">
<path d="M17.4754 12.8423C16.3122 12.8423 15.17 12.6604 14.0877 12.3027C13.5573 12.1218 12.9053 12.2877 12.5816 12.6202L10.4453 14.2329C7.96768 12.9104 6.44154 11.3847 5.13708 8.92577L6.70235 6.84507C7.10902 6.43895 7.25488 5.84569 7.08012 5.28905C6.7209 4.20101 6.53842 3.05937 6.53842 1.89562C6.53847 1.05492 5.85452 0.370972 5.01387 0.370972H1.5246C0.683951 0.370972 0 1.05492 0 1.89557C0 11.5316 7.83938 19.371 17.4754 19.371C18.3161 19.371 19 18.687 19 17.8464V14.3668C19 13.5262 18.316 12.8423 17.4754 12.8423Z" fill="#22B8C7"/>
</g>
<defs>
<clipPath id="clip0_12_292">
<rect width="19" height="19" fill="white" transform="translate(0 0.370972)"/>
</clipPath>
</defs>
</svg>
