<svg width="19" height="20" viewBox="0 0 19 20" fill="none" xmlns="http://www.w3.org/2000/svg">
<g clip-path="url(#clip0_12_22)">
<path d="M17.4754 13.027C16.3122 13.027 15.17 12.8451 14.0877 12.4874C13.5573 12.3065 12.9053 12.4724 12.5816 12.8049L10.4453 14.4176C7.96768 13.0951 6.44154 11.5694 5.13708 9.11046L6.70235 7.02977C7.10902 6.62364 7.25488 6.03039 7.08012 5.47374C6.7209 4.3857 6.53842 3.24407 6.53842 2.08032C6.53847 1.23961 5.85452 0.555664 5.01387 0.555664H1.5246C0.683951 0.555664 0 1.23961 0 2.08027C0 11.7163 7.83938 19.5557 17.4754 19.5557C18.3161 19.5557 19 18.8717 19 18.0311V14.5515C19 13.7109 18.316 13.027 17.4754 13.027Z" fill="white"/>
</g>
<defs>
<clipPath id="clip0_12_22">
<rect width="19" height="19" fill="white" transform="translate(0 0.555664)"/>
</clipPath>
</defs>
</svg>
