<svg width="288" height="57" viewBox="0 0 288 57" fill="none" xmlns="http://www.w3.org/2000/svg">
<path opacity="0.5" d="M84.936 53.2735C83.9653 53.2735 83.088 53.0588 82.304 52.6295C81.5293 52.2001 80.918 51.6075 80.47 50.8515C80.0313 50.0861 79.812 49.2321 79.812 48.2895C79.812 47.3468 80.0313 46.4975 80.47 45.7415C80.918 44.9761 81.534 44.3788 82.318 43.9495C83.102 43.5201 83.9793 43.3055 84.95 43.3055C85.678 43.3055 86.35 43.4268 86.966 43.6695C87.582 43.9121 88.1047 44.2668 88.534 44.7335L87.876 45.3915C87.1107 44.6168 86.1447 44.2295 84.978 44.2295C84.2033 44.2295 83.4987 44.4068 82.864 44.7615C82.2293 45.1161 81.73 45.6015 81.366 46.2175C81.0113 46.8335 80.834 47.5241 80.834 48.2895C80.834 49.0548 81.0113 49.7455 81.366 50.3615C81.73 50.9775 82.2293 51.4628 82.864 51.8175C83.4987 52.1721 84.2033 52.3495 84.978 52.3495C86.154 52.3495 87.12 51.9575 87.876 51.1735L88.534 51.8315C88.1047 52.2981 87.5773 52.6575 86.952 52.9095C86.336 53.1521 85.664 53.2735 84.936 53.2735ZM95.4104 46.7075H92.6244V53.1895H91.6304V46.7075H88.8444V45.8255H95.4104V46.7075ZM99.5438 53.2595C98.8345 53.2595 98.1951 53.1008 97.6258 52.7835C97.0565 52.4568 96.6085 52.0088 96.2818 51.4395C95.9551 50.8701 95.7918 50.2261 95.7918 49.5075C95.7918 48.7888 95.9551 48.1448 96.2818 47.5755C96.6085 47.0061 97.0565 46.5628 97.6258 46.2455C98.1951 45.9281 98.8345 45.7695 99.5438 45.7695C100.253 45.7695 100.892 45.9281 101.462 46.2455C102.031 46.5628 102.474 47.0061 102.792 47.5755C103.118 48.1448 103.282 48.7888 103.282 49.5075C103.282 50.2261 103.118 50.8701 102.792 51.4395C102.474 52.0088 102.031 52.4568 101.462 52.7835C100.892 53.1008 100.253 53.2595 99.5438 53.2595ZM99.5438 52.3775C100.066 52.3775 100.533 52.2608 100.944 52.0275C101.364 51.7848 101.69 51.4441 101.924 51.0055C102.157 50.5668 102.274 50.0675 102.274 49.5075C102.274 48.9475 102.157 48.4481 101.924 48.0095C101.69 47.5708 101.364 47.2348 100.944 47.0015C100.533 46.7588 100.066 46.6375 99.5438 46.6375C99.0211 46.6375 98.5498 46.7588 98.1298 47.0015C97.7191 47.2348 97.3925 47.5708 97.1498 48.0095C96.9165 48.4481 96.7998 48.9475 96.7998 49.5075C96.7998 50.0675 96.9165 50.5668 97.1498 51.0055C97.3925 51.4441 97.7191 51.7848 98.1298 52.0275C98.5498 52.2608 99.0211 52.3775 99.5438 52.3775ZM113.638 45.8255V53.1895H112.728V47.3655L109.746 52.2935H109.298L106.316 47.3515V53.1895H105.406V45.8255H106.414L109.536 51.1315L112.714 45.8255H113.638ZM119.001 45.7695C119.962 45.7695 120.699 46.0121 121.213 46.4975C121.726 46.9735 121.983 47.6828 121.983 48.6255V53.1895H121.031V52.0415C120.807 52.4241 120.475 52.7228 120.037 52.9375C119.607 53.1521 119.094 53.2595 118.497 53.2595C117.675 53.2595 117.022 53.0635 116.537 52.6715C116.051 52.2795 115.809 51.7615 115.809 51.1175C115.809 50.4921 116.033 49.9881 116.481 49.6055C116.938 49.2228 117.661 49.0315 118.651 49.0315H120.989V48.5835C120.989 47.9488 120.811 47.4681 120.457 47.1415C120.102 46.8055 119.584 46.6375 118.903 46.6375C118.436 46.6375 117.988 46.7168 117.559 46.8755C117.129 47.0248 116.761 47.2348 116.453 47.5055L116.005 46.7635C116.378 46.4461 116.826 46.2035 117.349 46.0355C117.871 45.8581 118.422 45.7695 119.001 45.7695ZM118.651 52.4755C119.211 52.4755 119.691 52.3495 120.093 52.0975C120.494 51.8361 120.793 51.4628 120.989 50.9775V49.7735H118.679C117.419 49.7735 116.789 50.2121 116.789 51.0895C116.789 51.5188 116.952 51.8595 117.279 52.1115C117.605 52.3541 118.063 52.4755 118.651 52.4755ZM129.809 46.7075H127.023V53.1895H126.029V46.7075H123.243V45.8255H129.809V46.7075ZM133.942 53.2595C133.233 53.2595 132.594 53.1008 132.024 52.7835C131.455 52.4568 131.007 52.0088 130.68 51.4395C130.354 50.8701 130.19 50.2261 130.19 49.5075C130.19 48.7888 130.354 48.1448 130.68 47.5755C131.007 47.0061 131.455 46.5628 132.024 46.2455C132.594 45.9281 133.233 45.7695 133.942 45.7695C134.652 45.7695 135.291 45.9281 135.86 46.2455C136.43 46.5628 136.873 47.0061 137.19 47.5755C137.517 48.1448 137.68 48.7888 137.68 49.5075C137.68 50.2261 137.517 50.8701 137.19 51.4395C136.873 52.0088 136.43 52.4568 135.86 52.7835C135.291 53.1008 134.652 53.2595 133.942 53.2595ZM133.942 52.3775C134.465 52.3775 134.932 52.2608 135.342 52.0275C135.762 51.7848 136.089 51.4441 136.322 51.0055C136.556 50.5668 136.672 50.0675 136.672 49.5075C136.672 48.9475 136.556 48.4481 136.322 48.0095C136.089 47.5708 135.762 47.2348 135.342 47.0015C134.932 46.7588 134.465 46.6375 133.942 46.6375C133.42 46.6375 132.948 46.7588 132.528 47.0015C132.118 47.2348 131.791 47.5708 131.548 48.0095C131.315 48.4481 131.198 48.9475 131.198 49.5075C131.198 50.0675 131.315 50.5668 131.548 51.0055C131.791 51.4441 132.118 51.7848 132.528 52.0275C132.948 52.2608 133.42 52.3775 133.942 52.3775ZM145.784 45.8255V53.1895H144.79V46.7075H141.262L141.164 48.5275C141.089 50.0581 140.912 51.2341 140.632 52.0555C140.352 52.8768 139.852 53.2875 139.134 53.2875C138.938 53.2875 138.7 53.2501 138.42 53.1755L138.49 52.3215C138.658 52.3588 138.774 52.3775 138.84 52.3775C139.222 52.3775 139.512 52.2001 139.708 51.8455C139.904 51.4908 140.034 51.0521 140.1 50.5295C140.165 50.0068 140.221 49.3161 140.268 48.4575L140.394 45.8255H145.784ZM151.647 53.2595C150.938 53.2595 150.299 53.1008 149.729 52.7835C149.16 52.4568 148.712 52.0088 148.385 51.4395C148.059 50.8701 147.895 50.2261 147.895 49.5075C147.895 48.7888 148.059 48.1448 148.385 47.5755C148.712 47.0061 149.16 46.5628 149.729 46.2455C150.299 45.9281 150.938 45.7695 151.647 45.7695C152.357 45.7695 152.996 45.9281 153.565 46.2455C154.135 46.5628 154.578 47.0061 154.895 47.5755C155.222 48.1448 155.385 48.7888 155.385 49.5075C155.385 50.2261 155.222 50.8701 154.895 51.4395C154.578 52.0088 154.135 52.4568 153.565 52.7835C152.996 53.1008 152.357 53.2595 151.647 53.2595ZM151.647 52.3775C152.17 52.3775 152.637 52.2608 153.047 52.0275C153.467 51.7848 153.794 51.4441 154.027 51.0055C154.261 50.5668 154.377 50.0675 154.377 49.5075C154.377 48.9475 154.261 48.4481 154.027 48.0095C153.794 47.5708 153.467 47.2348 153.047 47.0015C152.637 46.7588 152.17 46.6375 151.647 46.6375C151.125 46.6375 150.653 46.7588 150.233 47.0015C149.823 47.2348 149.496 47.5708 149.253 48.0095C149.02 48.4481 148.903 48.9475 148.903 49.5075C148.903 50.0675 149.02 50.5668 149.253 51.0055C149.496 51.4441 149.823 51.7848 150.233 52.0275C150.653 52.2608 151.125 52.3775 151.647 52.3775ZM162.718 46.7075H158.504V53.1895H157.51V45.8255H162.718V46.7075ZM164.154 45.8255H165.148V51.6775L170.062 45.8255H170.944V53.1895H169.95V47.3375L165.05 53.1895H164.154V45.8255ZM179.351 45.8255V53.1895H178.357V50.1235C177.508 50.4968 176.672 50.6835 175.851 50.6835C174.964 50.6835 174.274 50.4828 173.779 50.0815C173.284 49.6708 173.037 49.0595 173.037 48.2475V45.8255H174.031V48.1915C174.031 48.7421 174.208 49.1621 174.563 49.4515C174.918 49.7315 175.408 49.8715 176.033 49.8715C176.724 49.8715 177.498 49.6895 178.357 49.3255V45.8255H179.351ZM188.614 49.8155H182.454C182.51 50.5808 182.804 51.2015 183.336 51.6775C183.868 52.1441 184.54 52.3775 185.352 52.3775C185.809 52.3775 186.229 52.2981 186.612 52.1395C186.994 51.9715 187.326 51.7288 187.606 51.4115L188.166 52.0555C187.839 52.4475 187.428 52.7461 186.934 52.9515C186.448 53.1568 185.912 53.2595 185.324 53.2595C184.568 53.2595 183.896 53.1008 183.308 52.7835C182.729 52.4568 182.276 52.0088 181.95 51.4395C181.623 50.8701 181.46 50.2261 181.46 49.5075C181.46 48.7888 181.614 48.1448 181.922 47.5755C182.239 47.0061 182.668 46.5628 183.21 46.2455C183.76 45.9281 184.376 45.7695 185.058 45.7695C185.739 45.7695 186.35 45.9281 186.892 46.2455C187.433 46.5628 187.858 47.0061 188.166 47.5755C188.474 48.1355 188.628 48.7795 188.628 49.5075L188.614 49.8155ZM185.058 46.6235C184.348 46.6235 183.751 46.8521 183.266 47.3095C182.79 47.7575 182.519 48.3455 182.454 49.0735H187.676C187.61 48.3455 187.335 47.7575 186.85 47.3095C186.374 46.8521 185.776 46.6235 185.058 46.6235ZM193.908 53.2595C193.18 53.2595 192.527 53.1008 191.948 52.7835C191.379 52.4661 190.931 52.0228 190.604 51.4535C190.277 50.8748 190.114 50.2261 190.114 49.5075C190.114 48.7888 190.277 48.1448 190.604 47.5755C190.931 47.0061 191.379 46.5628 191.948 46.2455C192.527 45.9281 193.18 45.7695 193.908 45.7695C194.543 45.7695 195.107 45.8955 195.602 46.1475C196.106 46.3901 196.503 46.7495 196.792 47.2255L196.05 47.7295C195.807 47.3655 195.499 47.0948 195.126 46.9175C194.753 46.7308 194.347 46.6375 193.908 46.6375C193.376 46.6375 192.895 46.7588 192.466 47.0015C192.046 47.2348 191.715 47.5708 191.472 48.0095C191.239 48.4481 191.122 48.9475 191.122 49.5075C191.122 50.0768 191.239 50.5808 191.472 51.0195C191.715 51.4488 192.046 51.7848 192.466 52.0275C192.895 52.2608 193.376 52.3775 193.908 52.3775C194.347 52.3775 194.753 52.2888 195.126 52.1115C195.499 51.9341 195.807 51.6635 196.05 51.2995L196.792 51.8035C196.503 52.2795 196.106 52.6435 195.602 52.8955C195.098 53.1381 194.533 53.2595 193.908 53.2595ZM201.391 49.9135H199.711V53.1895H198.717V45.8255H199.711V49.0595H201.405L203.995 45.8255H205.073L202.175 49.3955L205.283 53.1895H204.107L201.391 49.9135ZM209.249 45.7695C210.21 45.7695 210.947 46.0121 211.461 46.4975C211.974 46.9735 212.231 47.6828 212.231 48.6255V53.1895H211.279V52.0415C211.055 52.4241 210.723 52.7228 210.285 52.9375C209.855 53.1521 209.342 53.2595 208.745 53.2595C207.923 53.2595 207.27 53.0635 206.785 52.6715C206.299 52.2795 206.057 51.7615 206.057 51.1175C206.057 50.4921 206.281 49.9881 206.729 49.6055C207.186 49.2228 207.909 49.0315 208.899 49.0315H211.237V48.5835C211.237 47.9488 211.059 47.4681 210.705 47.1415C210.35 46.8055 209.832 46.6375 209.151 46.6375C208.684 46.6375 208.236 46.7168 207.807 46.8755C207.377 47.0248 207.009 47.2348 206.701 47.5055L206.253 46.7635C206.626 46.4461 207.074 46.2035 207.597 46.0355C208.119 45.8581 208.67 45.7695 209.249 45.7695ZM208.899 52.4755C209.459 52.4755 209.939 52.3495 210.341 52.0975C210.742 51.8361 211.041 51.4628 211.237 50.9775V49.7735H208.927C207.667 49.7735 207.037 50.2121 207.037 51.0895C207.037 51.5188 207.2 51.8595 207.527 52.1115C207.853 52.3541 208.311 52.4755 208.899 52.4755ZM220.533 45.8255V53.1895H219.623V50.7535H217.313H217.033L215.325 53.1895H214.247L216.081 50.6135C215.512 50.4548 215.073 50.1841 214.765 49.8015C214.457 49.4188 214.303 48.9335 214.303 48.3455C214.303 47.5241 214.583 46.8988 215.143 46.4695C215.703 46.0401 216.468 45.8255 217.439 45.8255H220.533ZM215.311 48.3735C215.311 49.4655 216.006 50.0115 217.397 50.0115H219.623V46.7075H217.467C216.03 46.7075 215.311 47.2628 215.311 48.3735ZM229.705 49.9135H228.025V53.1895H227.031V45.8255H228.025V49.0595H229.719L232.309 45.8255H233.387L230.489 49.3955L233.597 53.1895H232.421L229.705 49.9135ZM241.186 45.8255V53.1895H240.192V46.7075H236.664L236.566 48.5275C236.491 50.0581 236.314 51.2341 236.034 52.0555C235.754 52.8768 235.255 53.2875 234.536 53.2875C234.34 53.2875 234.102 53.2501 233.822 53.1755L233.892 52.3215C234.06 52.3588 234.177 52.3775 234.242 52.3775C234.625 52.3775 234.914 52.2001 235.11 51.8455C235.306 51.4908 235.437 51.0521 235.502 50.5295C235.567 50.0068 235.623 49.3161 235.67 48.4575L235.796 45.8255H241.186ZM244.012 45.8255H245.006V51.6775L249.92 45.8255H250.802V53.1895H249.808V47.3375L244.908 53.1895H244.012V45.8255ZM253.65 45.8255H254.644V49.0875H259.278V45.8255H260.272V53.1895H259.278V49.9415H254.644V53.1895H253.65V45.8255ZM263.098 45.8255H264.092V51.6775L269.006 45.8255H269.888V53.1895H268.894V47.3375L263.994 53.1895H263.098V45.8255ZM275.41 49.9135H273.73V53.1895H272.736V45.8255H273.73V49.0595H275.424L278.014 45.8255H279.092L276.194 49.3955L279.302 53.1895H278.126L275.41 49.9135ZM283.268 45.7695C284.23 45.7695 284.967 46.0121 285.48 46.4975C285.994 46.9735 286.25 47.6828 286.25 48.6255V53.1895H285.298V52.0415C285.074 52.4241 284.743 52.7228 284.304 52.9375C283.875 53.1521 283.362 53.2595 282.764 53.2595C281.943 53.2595 281.29 53.0635 280.804 52.6715C280.319 52.2795 280.076 51.7615 280.076 51.1175C280.076 50.4921 280.3 49.9881 280.748 49.6055C281.206 49.2228 281.929 49.0315 282.918 49.0315H285.256V48.5835C285.256 47.9488 285.079 47.4681 284.724 47.1415C284.37 46.8055 283.852 46.6375 283.17 46.6375C282.704 46.6375 282.256 46.7168 281.826 46.8755C281.397 47.0248 281.028 47.2348 280.72 47.5055L280.272 46.7635C280.646 46.4461 281.094 46.2035 281.616 46.0355C282.139 45.8581 282.69 45.7695 283.268 45.7695ZM282.918 52.4755C283.478 52.4755 283.959 52.3495 284.36 52.0975C284.762 51.8361 285.06 51.4628 285.256 50.9775V49.7735H282.946C281.686 49.7735 281.056 50.2121 281.056 51.0895C281.056 51.5188 281.22 51.8595 281.546 52.1115C281.873 52.3541 282.33 52.4755 282.918 52.4755Z" fill="white"/>
<g opacity="0.5" clip-path="url(#clip0_12_10)">
<path d="M17.1733 23.8674C13.5238 21.9961 9.67142 21.5736 6.34625 22.6601C4.19705 23.3644 2.41282 24.6321 1.19629 26.282C2.61557 34.2904 5.77854 45.659 12.956 52.3997C13.6049 53.0033 14.0915 53.4058 15.6121 53.0637C18.0452 52.5003 19.8294 43.8481 20.2349 42.5402C20.6202 41.2524 22.0394 35.8598 26.5 35.6989C26.7231 35.6989 26.9258 35.7391 27.1286 35.7592C25.0808 31.5538 21.7353 26.1814 17.1733 23.8674Z" fill="white"/>
<path d="M26.4195 4.3903C22.9524 3.42447 19.019 0.164786 13.0783 0.184907C9.48954 0.205029 6.7118 1.89523 4.98839 3.46471C3.26498 5.05431 -0.648185 10.0444 0.102007 17.9321C0.183108 18.8778 0.345312 20.6485 0.669719 22.9423C2.02817 21.7149 3.67048 20.7491 5.53582 20.1454C9.53009 18.8375 14.1123 19.3406 18.3905 21.5137C25.791 25.2764 30.1097 35.4378 31.5087 39.281C32.2183 40.609 32.5833 41.937 32.7657 42.5004C33.1713 43.8083 34.9555 52.4605 37.4088 53.0239C38.9295 53.366 39.4161 52.9636 40.0649 52.3599C43.5928 49.06 46.1475 44.6333 47.9926 40.0456C47.1005 36.4841 45.7015 31.7958 43.5726 26.866C40.3488 19.5217 34.9758 10.4066 26.4195 4.3903Z" fill="white"/>
<path d="M47.992 3.4643C46.2685 1.89482 43.5111 0.204616 39.9223 0.184494C35.5226 0.164373 32.2177 1.95519 29.3791 3.2832C31.7716 5.11426 34.0222 7.26726 36.1308 9.70196C39.9629 14.1689 43.288 19.6219 46.005 25.9199C47.5256 29.421 48.661 32.7813 49.5329 35.719C52.0065 27.8314 52.6756 20.306 52.8986 17.9316C53.6488 10.044 49.7154 5.05389 47.992 3.4643Z" fill="white"/>
</g>
<path opacity="0.5" d="M98.416 20.0166V26.6646H94.816V23.1846H82.96V26.6646H79.36L79.384 20.0166H80.056C81.064 19.9846 81.776 19.2486 82.192 17.8086C82.608 16.3686 82.864 14.3126 82.96 11.6406L83.152 6.38457H96.064V20.0166H98.416ZM86.392 12.0006C86.312 14.0006 86.144 15.6806 85.888 17.0406C85.632 18.3846 85.24 19.3766 84.712 20.0166H92.224V9.55257H86.464L86.392 12.0006ZM114.041 20.0646V23.1846H101.033V6.38457H113.729V9.50457H104.897V13.1526H112.697V16.1766H104.897V20.0646H114.041ZM132.59 6.38457V23.1846H128.702V16.2966H121.07V23.1846H117.182V6.38457H121.07V13.0086H128.702V6.38457H132.59ZM149.639 9.55257H144.263V23.1846H140.423V9.55257H135.071V6.38457H149.639V9.55257ZM162.612 19.5846H154.812L153.324 23.1846H149.34L156.828 6.38457H160.668L168.18 23.1846H164.1L162.612 19.5846ZM161.388 16.6326L158.724 10.2006L156.06 16.6326H161.388ZM185.149 23.4726C183.437 23.4726 181.885 23.1046 180.493 22.3686C179.117 21.6166 178.029 20.5846 177.229 19.2726C176.445 17.9446 176.053 16.4486 176.053 14.7846C176.053 13.1206 176.445 11.6326 177.229 10.3206C178.029 8.99257 179.117 7.96057 180.493 7.22457C181.885 6.47257 183.445 6.09657 185.173 6.09657C186.629 6.09657 187.941 6.35257 189.109 6.86457C190.293 7.37657 191.285 8.11257 192.085 9.07257L189.589 11.3766C188.453 10.0646 187.045 9.40857 185.365 9.40857C184.325 9.40857 183.397 9.64057 182.581 10.1046C181.765 10.5526 181.125 11.1846 180.661 12.0006C180.213 12.8166 179.989 13.7446 179.989 14.7846C179.989 15.8246 180.213 16.7526 180.661 17.5686C181.125 18.3846 181.765 19.0246 182.581 19.4886C183.397 19.9366 184.325 20.1606 185.365 20.1606C187.045 20.1606 188.453 19.4966 189.589 18.1686L192.085 20.4726C191.285 21.4486 190.293 22.1926 189.109 22.7046C187.925 23.2166 186.605 23.4726 185.149 23.4726ZM207.627 20.0646V23.1846H194.619V6.38457H207.315V9.50457H198.483V13.1526H206.283V16.1766H198.483V20.0646H207.627ZM218.04 6.38457C219.528 6.38457 220.816 6.63257 221.904 7.12857C223.008 7.62457 223.856 8.32857 224.448 9.24057C225.04 10.1526 225.336 11.2326 225.336 12.4806C225.336 13.7126 225.04 14.7926 224.448 15.7206C223.856 16.6326 223.008 17.3366 221.904 17.8326C220.816 18.3126 219.528 18.5526 218.04 18.5526H214.656V23.1846H210.768V6.38457H218.04ZM217.824 15.3846C218.992 15.3846 219.88 15.1366 220.488 14.6406C221.096 14.1286 221.4 13.4086 221.4 12.4806C221.4 11.5366 221.096 10.8166 220.488 10.3206C219.88 9.80857 218.992 9.55257 217.824 9.55257H214.656V15.3846H217.824ZM239.541 14.4246C240.565 14.7286 241.349 15.2246 241.893 15.9126C242.437 16.6006 242.709 17.4486 242.709 18.4566C242.709 19.9446 242.141 21.1046 241.005 21.9366C239.885 22.7686 238.277 23.1846 236.181 23.1846H227.901V6.38457H235.725C237.677 6.38457 239.197 6.76057 240.285 7.51257C241.373 8.26457 241.917 9.33657 241.917 10.7286C241.917 11.5606 241.709 12.2966 241.293 12.9366C240.877 13.5606 240.293 14.0566 239.541 14.4246ZM231.765 13.3446H235.389C236.237 13.3446 236.877 13.1766 237.309 12.8406C237.741 12.4886 237.957 11.9766 237.957 11.3046C237.957 10.6486 237.733 10.1446 237.285 9.79257C236.853 9.44057 236.221 9.26457 235.389 9.26457H231.765V13.3446ZM236.037 20.3046C237.861 20.3046 238.773 19.5846 238.773 18.1446C238.773 16.7526 237.861 16.0566 236.037 16.0566H231.765V20.3046H236.037ZM245.783 6.38457H249.647V17.3286L257.663 6.38457H261.311V23.1846H257.471V12.2646L249.455 23.1846H245.783V6.38457ZM273.438 23.4726C271.726 23.4726 270.174 23.1046 268.782 22.3686C267.406 21.6166 266.318 20.5846 265.518 19.2726C264.734 17.9446 264.342 16.4486 264.342 14.7846C264.342 13.1206 264.734 11.6326 265.518 10.3206C266.318 8.99257 267.406 7.96057 268.782 7.22457C270.174 6.47257 271.734 6.09657 273.462 6.09657C274.918 6.09657 276.23 6.35257 277.398 6.86457C278.582 7.37657 279.574 8.11257 280.374 9.07257L277.878 11.3766C276.742 10.0646 275.334 9.40857 273.654 9.40857C272.614 9.40857 271.686 9.64057 270.87 10.1046C270.054 10.5526 269.414 11.1846 268.95 12.0006C268.502 12.8166 268.278 13.7446 268.278 14.7846C268.278 15.8246 268.502 16.7526 268.95 17.5686C269.414 18.3846 270.054 19.0246 270.87 19.4886C271.686 19.9366 272.614 20.1606 273.654 20.1606C275.334 20.1606 276.742 19.4966 277.878 18.1686L280.374 20.4726C279.574 21.4486 278.582 22.1926 277.398 22.7046C276.214 23.2166 274.894 23.4726 273.438 23.4726Z" fill="white"/>
<defs>
<clipPath id="clip0_12_10">
<rect width="53" height="53" fill="white" transform="translate(0 0.18457)"/>
</clipPath>
</defs>
</svg>
