<svg width="348" height="62" viewBox="0 0 348 62" fill="none" xmlns="http://www.w3.org/2000/svg">
<path d="M86.632 56.1125C85.384 56.1125 84.256 55.8365 83.248 55.2845C82.252 54.7325 81.466 53.9705 80.89 52.9985C80.326 52.0145 80.044 50.9165 80.044 49.7045C80.044 48.4925 80.326 47.4005 80.89 46.4285C81.466 45.4445 82.258 44.6765 83.266 44.1245C84.274 43.5725 85.402 43.2965 86.65 43.2965C87.586 43.2965 88.45 43.4525 89.242 43.7645C90.034 44.0765 90.706 44.5325 91.258 45.1325L90.412 45.9785C89.428 44.9825 88.186 44.4845 86.686 44.4845C85.69 44.4845 84.784 44.7125 83.968 45.1685C83.152 45.6245 82.51 46.2485 82.042 47.0405C81.586 47.8325 81.358 48.7205 81.358 49.7045C81.358 50.6885 81.586 51.5765 82.042 52.3685C82.51 53.1605 83.152 53.7845 83.968 54.2405C84.784 54.6965 85.69 54.9245 86.686 54.9245C88.198 54.9245 89.44 54.4205 90.412 53.4125L91.258 54.2585C90.706 54.8585 90.028 55.3205 89.224 55.6445C88.432 55.9565 87.568 56.1125 86.632 56.1125ZM100.099 47.6705H96.5171V56.0045H95.2391V47.6705H91.6571V46.5365H100.099V47.6705ZM105.413 56.0945C104.501 56.0945 103.679 55.8905 102.947 55.4825C102.215 55.0625 101.639 54.4865 101.219 53.7545C100.799 53.0225 100.589 52.1945 100.589 51.2705C100.589 50.3465 100.799 49.5185 101.219 48.7865C101.639 48.0545 102.215 47.4845 102.947 47.0765C103.679 46.6685 104.501 46.4645 105.413 46.4645C106.325 46.4645 107.147 46.6685 107.879 47.0765C108.611 47.4845 109.181 48.0545 109.589 48.7865C110.009 49.5185 110.219 50.3465 110.219 51.2705C110.219 52.1945 110.009 53.0225 109.589 53.7545C109.181 54.4865 108.611 55.0625 107.879 55.4825C107.147 55.8905 106.325 56.0945 105.413 56.0945ZM105.413 54.9605C106.085 54.9605 106.685 54.8105 107.213 54.5105C107.753 54.1985 108.173 53.7605 108.473 53.1965C108.773 52.6325 108.923 51.9905 108.923 51.2705C108.923 50.5505 108.773 49.9085 108.473 49.3445C108.173 48.7805 107.753 48.3485 107.213 48.0485C106.685 47.7365 106.085 47.5805 105.413 47.5805C104.741 47.5805 104.135 47.7365 103.595 48.0485C103.067 48.3485 102.647 48.7805 102.335 49.3445C102.035 49.9085 101.885 50.5505 101.885 51.2705C101.885 51.9905 102.035 52.6325 102.335 53.1965C102.647 53.7605 103.067 54.1985 103.595 54.5105C104.135 54.8105 104.741 54.9605 105.413 54.9605ZM123.535 46.5365V56.0045H122.365V48.5165L118.531 54.8525H117.955L114.121 48.4985V56.0045H112.951V46.5365H114.247L118.261 53.3585L122.347 46.5365H123.535ZM130.43 46.4645C131.666 46.4645 132.614 46.7765 133.274 47.4005C133.934 48.0125 134.264 48.9245 134.264 50.1365V56.0045H133.04V54.5285C132.752 55.0205 132.326 55.4045 131.762 55.6805C131.21 55.9565 130.55 56.0945 129.782 56.0945C128.726 56.0945 127.886 55.8425 127.262 55.3385C126.638 54.8345 126.326 54.1685 126.326 53.3405C126.326 52.5365 126.614 51.8885 127.19 51.3965C127.778 50.9045 128.708 50.6585 129.98 50.6585H132.986V50.0825C132.986 49.2665 132.758 48.6485 132.302 48.2285C131.846 47.7965 131.18 47.5805 130.304 47.5805C129.704 47.5805 129.128 47.6825 128.576 47.8865C128.024 48.0785 127.55 48.3485 127.154 48.6965L126.578 47.7425C127.058 47.3345 127.634 47.0225 128.306 46.8065C128.978 46.5785 129.686 46.4645 130.43 46.4645ZM129.98 55.0865C130.7 55.0865 131.318 54.9245 131.834 54.6005C132.35 54.2645 132.734 53.7845 132.986 53.1605V51.6125H130.016C128.396 51.6125 127.586 52.1765 127.586 53.3045C127.586 53.8565 127.796 54.2945 128.216 54.6185C128.636 54.9305 129.224 55.0865 129.98 55.0865ZM144.326 47.6705H140.744V56.0045H139.466V47.6705H135.884V46.5365H144.326V47.6705ZM149.64 56.0945C148.728 56.0945 147.906 55.8905 147.174 55.4825C146.442 55.0625 145.866 54.4865 145.446 53.7545C145.026 53.0225 144.816 52.1945 144.816 51.2705C144.816 50.3465 145.026 49.5185 145.446 48.7865C145.866 48.0545 146.442 47.4845 147.174 47.0765C147.906 46.6685 148.728 46.4645 149.64 46.4645C150.552 46.4645 151.374 46.6685 152.106 47.0765C152.838 47.4845 153.408 48.0545 153.816 48.7865C154.236 49.5185 154.446 50.3465 154.446 51.2705C154.446 52.1945 154.236 53.0225 153.816 53.7545C153.408 54.4865 152.838 55.0625 152.106 55.4825C151.374 55.8905 150.552 56.0945 149.64 56.0945ZM149.64 54.9605C150.312 54.9605 150.912 54.8105 151.44 54.5105C151.98 54.1985 152.4 53.7605 152.7 53.1965C153 52.6325 153.15 51.9905 153.15 51.2705C153.15 50.5505 153 49.9085 152.7 49.3445C152.4 48.7805 151.98 48.3485 151.44 48.0485C150.912 47.7365 150.312 47.5805 149.64 47.5805C148.968 47.5805 148.362 47.7365 147.822 48.0485C147.294 48.3485 146.874 48.7805 146.562 49.3445C146.262 49.9085 146.112 50.5505 146.112 51.2705C146.112 51.9905 146.262 52.6325 146.562 53.1965C146.874 53.7605 147.294 54.1985 147.822 54.5105C148.362 54.8105 148.968 54.9605 149.64 54.9605ZM164.865 46.5365V56.0045H163.587V47.6705H159.051L158.925 50.0105C158.829 51.9785 158.601 53.4905 158.241 54.5465C157.881 55.6025 157.239 56.1305 156.315 56.1305C156.063 56.1305 155.757 56.0825 155.397 55.9865L155.487 54.8885C155.703 54.9365 155.853 54.9605 155.937 54.9605C156.429 54.9605 156.801 54.7325 157.053 54.2765C157.305 53.8205 157.473 53.2565 157.557 52.5845C157.641 51.9125 157.713 51.0245 157.773 49.9205L157.935 46.5365H164.865ZM172.404 56.0945C171.492 56.0945 170.67 55.8905 169.938 55.4825C169.206 55.0625 168.63 54.4865 168.21 53.7545C167.79 53.0225 167.58 52.1945 167.58 51.2705C167.58 50.3465 167.79 49.5185 168.21 48.7865C168.63 48.0545 169.206 47.4845 169.938 47.0765C170.67 46.6685 171.492 46.4645 172.404 46.4645C173.316 46.4645 174.138 46.6685 174.87 47.0765C175.602 47.4845 176.172 48.0545 176.58 48.7865C177 49.5185 177.21 50.3465 177.21 51.2705C177.21 52.1945 177 53.0225 176.58 53.7545C176.172 54.4865 175.602 55.0625 174.87 55.4825C174.138 55.8905 173.316 56.0945 172.404 56.0945ZM172.404 54.9605C173.076 54.9605 173.676 54.8105 174.204 54.5105C174.744 54.1985 175.164 53.7605 175.464 53.1965C175.764 52.6325 175.914 51.9905 175.914 51.2705C175.914 50.5505 175.764 49.9085 175.464 49.3445C175.164 48.7805 174.744 48.3485 174.204 48.0485C173.676 47.7365 173.076 47.5805 172.404 47.5805C171.732 47.5805 171.126 47.7365 170.586 48.0485C170.058 48.3485 169.638 48.7805 169.326 49.3445C169.026 49.9085 168.876 50.5505 168.876 51.2705C168.876 51.9905 169.026 52.6325 169.326 53.1965C169.638 53.7605 170.058 54.1985 170.586 54.5105C171.126 54.8105 171.732 54.9605 172.404 54.9605ZM186.637 47.6705H181.219V56.0045H179.941V46.5365H186.637V47.6705ZM188.484 46.5365H189.762V54.0605L196.08 46.5365H197.214V56.0045H195.936V48.4805L189.636 56.0045H188.484V46.5365ZM208.023 46.5365V56.0045H206.745V52.0625C205.653 52.5425 204.579 52.7825 203.523 52.7825C202.383 52.7825 201.495 52.5245 200.859 52.0085C200.223 51.4805 199.905 50.6945 199.905 49.6505V46.5365H201.183V49.5785C201.183 50.2865 201.411 50.8265 201.867 51.1985C202.323 51.5585 202.953 51.7385 203.757 51.7385C204.645 51.7385 205.641 51.5045 206.745 51.0365V46.5365H208.023ZM219.932 51.6665H212.012C212.084 52.6505 212.462 53.4485 213.146 54.0605C213.83 54.6605 214.694 54.9605 215.738 54.9605C216.326 54.9605 216.866 54.8585 217.358 54.6545C217.85 54.4385 218.276 54.1265 218.636 53.7185L219.356 54.5465C218.936 55.0505 218.408 55.4345 217.772 55.6985C217.148 55.9625 216.458 56.0945 215.702 56.0945C214.73 56.0945 213.866 55.8905 213.11 55.4825C212.366 55.0625 211.784 54.4865 211.364 53.7545C210.944 53.0225 210.734 52.1945 210.734 51.2705C210.734 50.3465 210.932 49.5185 211.328 48.7865C211.736 48.0545 212.288 47.4845 212.984 47.0765C213.692 46.6685 214.484 46.4645 215.36 46.4645C216.236 46.4645 217.022 46.6685 217.718 47.0765C218.414 47.4845 218.96 48.0545 219.356 48.7865C219.752 49.5065 219.95 50.3345 219.95 51.2705L219.932 51.6665ZM215.36 47.5625C214.448 47.5625 213.68 47.8565 213.056 48.4445C212.444 49.0205 212.096 49.7765 212.012 50.7125H218.726C218.642 49.7765 218.288 49.0205 217.664 48.4445C217.052 47.8565 216.284 47.5625 215.36 47.5625ZM226.739 56.0945C225.803 56.0945 224.963 55.8905 224.219 55.4825C223.487 55.0745 222.911 54.5045 222.491 53.7725C222.071 53.0285 221.861 52.1945 221.861 51.2705C221.861 50.3465 222.071 49.5185 222.491 48.7865C222.911 48.0545 223.487 47.4845 224.219 47.0765C224.963 46.6685 225.803 46.4645 226.739 46.4645C227.555 46.4645 228.281 46.6265 228.917 46.9505C229.565 47.2625 230.075 47.7245 230.447 48.3365L229.493 48.9845C229.181 48.5165 228.785 48.1685 228.305 47.9405C227.825 47.7005 227.303 47.5805 226.739 47.5805C226.055 47.5805 225.437 47.7365 224.885 48.0485C224.345 48.3485 223.919 48.7805 223.607 49.3445C223.307 49.9085 223.157 50.5505 223.157 51.2705C223.157 52.0025 223.307 52.6505 223.607 53.2145C223.919 53.7665 224.345 54.1985 224.885 54.5105C225.437 54.8105 226.055 54.9605 226.739 54.9605C227.303 54.9605 227.825 54.8465 228.305 54.6185C228.785 54.3905 229.181 54.0425 229.493 53.5745L230.447 54.2225C230.075 54.8345 229.565 55.3025 228.917 55.6265C228.269 55.9385 227.543 56.0945 226.739 56.0945ZM236.36 51.7925H234.2V56.0045H232.922V46.5365H234.2V50.6945H236.378L239.708 46.5365H241.094L237.368 51.1265L241.364 56.0045H239.852L236.36 51.7925ZM246.463 46.4645C247.699 46.4645 248.647 46.7765 249.307 47.4005C249.967 48.0125 250.297 48.9245 250.297 50.1365V56.0045H249.073V54.5285C248.785 55.0205 248.359 55.4045 247.795 55.6805C247.243 55.9565 246.583 56.0945 245.815 56.0945C244.759 56.0945 243.919 55.8425 243.295 55.3385C242.671 54.8345 242.359 54.1685 242.359 53.3405C242.359 52.5365 242.647 51.8885 243.223 51.3965C243.811 50.9045 244.741 50.6585 246.013 50.6585H249.019V50.0825C249.019 49.2665 248.791 48.6485 248.335 48.2285C247.879 47.7965 247.213 47.5805 246.337 47.5805C245.737 47.5805 245.161 47.6825 244.609 47.8865C244.057 48.0785 243.583 48.3485 243.187 48.6965L242.611 47.7425C243.091 47.3345 243.667 47.0225 244.339 46.8065C245.011 46.5785 245.719 46.4645 246.463 46.4645ZM246.013 55.0865C246.733 55.0865 247.351 54.9245 247.867 54.6005C248.383 54.2645 248.767 53.7845 249.019 53.1605V51.6125H246.049C244.429 51.6125 243.619 52.1765 243.619 53.3045C243.619 53.8565 243.829 54.2945 244.249 54.6185C244.669 54.9305 245.257 55.0865 246.013 55.0865ZM260.971 46.5365V56.0045H259.801V52.8725H256.831H256.471L254.275 56.0045H252.889L255.247 52.6925C254.515 52.4885 253.951 52.1405 253.555 51.6485C253.159 51.1565 252.961 50.5325 252.961 49.7765C252.961 48.7205 253.321 47.9165 254.041 47.3645C254.761 46.8125 255.745 46.5365 256.993 46.5365H260.971ZM254.257 49.8125C254.257 51.2165 255.151 51.9185 256.939 51.9185H259.801V47.6705H257.029C255.181 47.6705 254.257 48.3845 254.257 49.8125ZM272.764 51.7925H270.604V56.0045H269.326V46.5365H270.604V50.6945H272.782L276.112 46.5365H277.498L273.772 51.1265L277.768 56.0045H276.256L272.764 51.7925ZM287.525 46.5365V56.0045H286.247V47.6705H281.711L281.585 50.0105C281.489 51.9785 281.261 53.4905 280.901 54.5465C280.541 55.6025 279.899 56.1305 278.975 56.1305C278.723 56.1305 278.417 56.0825 278.057 55.9865L278.147 54.8885C278.363 54.9365 278.513 54.9605 278.597 54.9605C279.089 54.9605 279.461 54.7325 279.713 54.2765C279.965 53.8205 280.133 53.2565 280.217 52.5845C280.301 51.9125 280.373 51.0245 280.433 49.9205L280.595 46.5365H287.525ZM291.158 46.5365H292.436V54.0605L298.754 46.5365H299.888V56.0045H298.61V48.4805L292.31 56.0045H291.158V46.5365ZM303.55 46.5365H304.828V50.7305H310.786V46.5365H312.064V56.0045H310.786V51.8285H304.828V56.0045H303.55V46.5365ZM315.697 46.5365H316.975V54.0605L323.293 46.5365H324.427V56.0045H323.149V48.4805L316.849 56.0045H315.697V46.5365ZM331.527 51.7925H329.367V56.0045H328.089V46.5365H329.367V50.6945H331.545L334.875 46.5365H336.261L332.535 51.1265L336.531 56.0045H335.019L331.527 51.7925ZM341.631 46.4645C342.867 46.4645 343.815 46.7765 344.475 47.4005C345.135 48.0125 345.465 48.9245 345.465 50.1365V56.0045H344.241V54.5285C343.953 55.0205 343.527 55.4045 342.963 55.6805C342.411 55.9565 341.751 56.0945 340.983 56.0945C339.927 56.0945 339.087 55.8425 338.463 55.3385C337.839 54.8345 337.527 54.1685 337.527 53.3405C337.527 52.5365 337.815 51.8885 338.391 51.3965C338.979 50.9045 339.909 50.6585 341.181 50.6585H344.187V50.0825C344.187 49.2665 343.959 48.6485 343.503 48.2285C343.047 47.7965 342.381 47.5805 341.505 47.5805C340.905 47.5805 340.329 47.6825 339.777 47.8865C339.225 48.0785 338.751 48.3485 338.355 48.6965L337.779 47.7425C338.259 47.3345 338.835 47.0225 339.507 46.8065C340.179 46.5785 340.887 46.4645 341.631 46.4645ZM341.181 55.0865C341.901 55.0865 342.519 54.9245 343.035 54.6005C343.551 54.2645 343.935 53.7845 344.187 53.1605V51.6125H341.217C339.597 51.6125 338.787 52.1765 338.787 53.3045C338.787 53.8565 338.997 54.2945 339.417 54.6185C339.837 54.9305 340.425 55.0865 341.181 55.0865Z" fill="#31343D"/>
<g clip-path="url(#clip0_12_278)">
<path d="M17.1733 23.6829C13.5238 21.8116 9.67142 21.389 6.34625 22.4756C4.19705 23.1798 2.41282 24.4475 1.19629 26.0974C2.61557 34.1058 5.77854 45.4744 12.956 52.2151C13.6049 52.8188 14.0915 53.2212 15.6121 52.8791C18.0452 52.3157 19.8294 43.6635 20.2349 42.3556C20.6202 41.0678 22.0394 35.6753 26.5 35.5143C26.7231 35.5143 26.9258 35.5545 27.1286 35.5747C25.0808 31.3693 21.7353 25.9968 17.1733 23.6829Z" fill="#007B9A"/>
<path d="M26.4195 4.20561C22.9524 3.23977 19.019 -0.0199067 13.0783 0.000214815C9.48954 0.0203363 6.7118 1.71054 4.98839 3.28002C3.26498 4.86962 -0.648185 9.85974 0.102007 17.7474C0.183108 18.6931 0.345312 20.4638 0.669719 22.7576C2.02817 21.5302 3.67048 20.5644 5.53582 19.9607C9.53009 18.6528 14.1123 19.1559 18.3905 21.329C25.791 25.0917 30.1097 35.2531 31.5087 39.0963C32.2183 40.4243 32.5833 41.7523 32.7657 42.3157C33.1713 43.6236 34.9555 52.2758 37.4088 52.8393C38.9295 53.1813 39.4161 52.7789 40.0649 52.1752C43.5928 48.8753 46.1475 44.4486 47.9926 39.8609C47.1005 36.2994 45.7015 31.6111 43.5726 26.6813C40.3488 19.337 34.9758 10.2219 26.4195 4.20561Z" fill="#27C7D7"/>
<path d="M47.992 3.27973C46.2685 1.71025 43.5111 0.0200454 39.9223 -7.60696e-05C35.5226 -0.0201976 32.2177 1.77061 29.3791 3.09863C31.7716 4.92969 34.0222 7.08269 36.1308 9.51739C39.9629 13.9844 43.288 19.4373 46.005 25.7353C47.5256 29.2364 48.661 32.5967 49.5329 35.5345C52.0065 27.6469 52.6756 20.1214 52.8986 17.7471C53.6488 9.85945 49.7154 4.86932 47.992 3.27973Z" fill="#009FD6"/>
</g>
<path d="M103.27 25.0399V33.3499H98.77V28.9999H83.95V33.3499H79.45L79.48 25.0399H80.32C81.58 24.9999 82.47 24.0799 82.99 22.2799C83.51 20.4799 83.83 17.9099 83.95 14.5699L84.19 7.99988H100.33V25.0399H103.27ZM88.24 15.0199C88.14 17.5199 87.93 19.6199 87.61 21.3199C87.29 22.9999 86.8 24.2399 86.14 25.0399H95.53V11.9599H88.33L88.24 15.0199ZM122.802 25.0999V28.9999H106.542V7.99988H122.412V11.8999H111.372V16.4599H121.122V20.2399H111.372V25.0999H122.802ZM145.987 7.99988V28.9999H141.127V20.3899H131.587V28.9999H126.727V7.99988H131.587V16.2799H141.127V7.99988H145.987ZM167.299 11.9599H160.579V28.9999H155.779V11.9599H149.089V7.99988H167.299V11.9599ZM183.516 24.4999H173.766L171.906 28.9999H166.926L176.286 7.99988H181.086L190.476 28.9999H185.376L183.516 24.4999ZM181.986 20.8099L178.656 12.7699L175.326 20.8099H181.986ZM211.686 29.3599C209.546 29.3599 207.606 28.8999 205.866 27.9799C204.146 27.0399 202.786 25.7499 201.786 24.1099C200.806 22.4499 200.316 20.5799 200.316 18.4999C200.316 16.4199 200.806 14.5599 201.786 12.9199C202.786 11.2599 204.146 9.96988 205.866 9.04988C207.606 8.10988 209.556 7.63988 211.716 7.63988C213.536 7.63988 215.176 7.95988 216.636 8.59988C218.116 9.23988 219.356 10.1599 220.356 11.3599L217.236 14.2399C215.816 12.5999 214.056 11.7799 211.956 11.7799C210.656 11.7799 209.496 12.0699 208.476 12.6499C207.456 13.2099 206.656 13.9999 206.076 15.0199C205.516 16.0399 205.236 17.1999 205.236 18.4999C205.236 19.7999 205.516 20.9599 206.076 21.9799C206.656 22.9999 207.456 23.7999 208.476 24.3799C209.496 24.9399 210.656 25.2199 211.956 25.2199C214.056 25.2199 215.816 24.3899 217.236 22.7299L220.356 25.6099C219.356 26.8299 218.116 27.7599 216.636 28.3999C215.156 29.0399 213.506 29.3599 211.686 29.3599ZM239.784 25.0999V28.9999H223.524V7.99988H239.394V11.8999H228.354V16.4599H238.104V20.2399H228.354V25.0999H239.784ZM252.8 7.99988C254.66 7.99988 256.27 8.30988 257.63 8.92988C259.01 9.54988 260.07 10.4299 260.81 11.5699C261.55 12.7099 261.92 14.0599 261.92 15.6199C261.92 17.1599 261.55 18.5099 260.81 19.6699C260.07 20.8099 259.01 21.6899 257.63 22.3099C256.27 22.9099 254.66 23.2099 252.8 23.2099H248.57V28.9999H243.71V7.99988H252.8ZM252.53 19.2499C253.99 19.2499 255.1 18.9399 255.86 18.3199C256.62 17.6799 257 16.7799 257 15.6199C257 14.4399 256.62 13.5399 255.86 12.9199C255.1 12.2799 253.99 11.9599 252.53 11.9599H248.57V19.2499H252.53ZM279.676 18.0499C280.956 18.4299 281.936 19.0499 282.616 19.9099C283.296 20.7699 283.636 21.8299 283.636 23.0899C283.636 24.9499 282.926 26.3999 281.506 27.4399C280.106 28.4799 278.096 28.9999 275.476 28.9999H265.126V7.99988H274.906C277.346 7.99988 279.246 8.46988 280.606 9.40988C281.966 10.3499 282.646 11.6899 282.646 13.4299C282.646 14.4699 282.386 15.3899 281.866 16.1899C281.346 16.9699 280.616 17.5899 279.676 18.0499ZM269.956 16.6999H274.486C275.546 16.6999 276.346 16.4899 276.886 16.0699C277.426 15.6299 277.696 14.9899 277.696 14.1499C277.696 13.3299 277.416 12.6999 276.856 12.2599C276.316 11.8199 275.526 11.5999 274.486 11.5999H269.956V16.6999ZM275.296 25.3999C277.576 25.3999 278.716 24.4999 278.716 22.6999C278.716 20.9599 277.576 20.0899 275.296 20.0899H269.956V25.3999H275.296ZM287.479 7.99988H292.309V21.6799L302.329 7.99988H306.889V28.9999H302.089V15.3499L292.069 28.9999H287.479V7.99988ZM322.048 29.3599C319.908 29.3599 317.968 28.8999 316.228 27.9799C314.508 27.0399 313.148 25.7499 312.148 24.1099C311.168 22.4499 310.678 20.5799 310.678 18.4999C310.678 16.4199 311.168 14.5599 312.148 12.9199C313.148 11.2599 314.508 9.96988 316.228 9.04988C317.968 8.10988 319.918 7.63988 322.078 7.63988C323.898 7.63988 325.538 7.95988 326.998 8.59988C328.478 9.23988 329.718 10.1599 330.718 11.3599L327.598 14.2399C326.178 12.5999 324.418 11.7799 322.318 11.7799C321.018 11.7799 319.858 12.0699 318.838 12.6499C317.818 13.2099 317.018 13.9999 316.438 15.0199C315.878 16.0399 315.598 17.1999 315.598 18.4999C315.598 19.7999 315.878 20.9599 316.438 21.9799C317.018 22.9999 317.818 23.7999 318.838 24.3799C319.858 24.9399 321.018 25.2199 322.318 25.2199C324.418 25.2199 326.178 24.3899 327.598 22.7299L330.718 25.6099C329.718 26.8299 328.478 27.7599 326.998 28.3999C325.518 29.0399 323.868 29.3599 322.048 29.3599Z" fill="#22B8C7"/>
<defs>
<clipPath id="clip0_12_278">
<rect width="53" height="53" fill="white" transform="translate(0 -0.00012207)"/>
</clipPath>
</defs>
</svg>
