<svg width="13" height="21" viewBox="0 0 13 21" fill="none" xmlns="http://www.w3.org/2000/svg">
<path d="M11.7307 0.0233396L9.05282 0.019043C6.04433 0.019043 4.10011 2.01377 4.10011 5.10113V7.44431H1.40764C1.17498 7.44431 0.986572 7.63293 0.986572 7.8656V11.2606C0.986572 11.4933 1.17519 11.6817 1.40764 11.6817H4.10011V20.2484C4.10011 20.481 4.28852 20.6694 4.52118 20.6694H8.03409C8.26675 20.6694 8.45516 20.4808 8.45516 20.2484V11.6817H11.6033C11.836 11.6817 12.0244 11.4933 12.0244 11.2606L12.0256 7.8656C12.0256 7.75389 11.9812 7.6469 11.9023 7.56784C11.8235 7.48878 11.7161 7.44431 11.6044 7.44431H8.45516V5.45797C8.45516 4.50325 8.68267 4.01859 9.92632 4.01859L11.7303 4.01794C11.9627 4.01794 12.1511 3.82932 12.1511 3.59687V0.444412C12.1511 0.212178 11.9629 0.0237693 11.7307 0.0233396Z" fill="#B0B5D1"/>
</svg>
