<svg width="13" height="21" viewBox="0 0 13 21" fill="none" xmlns="http://www.w3.org/2000/svg">
<path d="M5.43364 14.2193C3.8708 14.0563 2.46166 13.6714 1.25522 12.7278C1.10552 12.6104 0.950972 12.4972 0.814365 12.3661C0.286309 11.859 0.233102 11.2781 0.650944 10.6795C1.0084 10.1673 1.60846 10.0303 2.23216 10.3244C2.35293 10.3814 2.468 10.4526 2.57821 10.529C4.82662 12.0739 7.91536 12.1165 10.1722 10.5985C10.3958 10.427 10.6348 10.2872 10.9118 10.2159C11.4504 10.0776 11.9527 10.2754 12.2418 10.7467C12.572 11.2849 12.5678 11.8102 12.1609 12.228C11.5368 12.8686 10.7862 13.3321 9.95221 13.6555C9.16361 13.9613 8.29984 14.1152 7.44495 14.2174C7.57395 14.3578 7.63476 14.4268 7.71541 14.5079C8.87625 15.6742 10.0422 16.8357 11.1992 18.0056C11.5934 18.4042 11.6757 18.8985 11.4587 19.3622C11.2214 19.8689 10.6901 20.2023 10.1693 20.1666C9.83925 20.1438 9.58187 19.9795 9.35321 19.7492C8.4772 18.8677 7.58472 18.0024 6.72644 17.1043C6.47667 16.8431 6.35653 16.8925 6.1361 17.1192C5.25481 18.0265 4.35916 18.9198 3.45824 19.8081C3.0537 20.2069 2.5723 20.2787 2.10315 20.0509C1.60444 19.8091 1.2871 19.3001 1.3116 18.7885C1.32849 18.4425 1.49866 18.1781 1.73619 17.941C2.885 16.7939 4.03063 15.6438 5.17669 14.4948C5.25249 14.4184 5.32322 14.3373 5.43364 14.2193Z" fill="#B0B5D1"/>
<path d="M6.38477 10.2232C3.59669 10.2137 1.31049 7.90232 1.32675 5.10981C1.34279 2.28647 3.63047 0.0112509 6.446 0.019063C9.26722 0.026664 11.5317 2.33461 11.5175 5.1873C11.5032 7.97411 9.20114 10.2329 6.38477 10.2232ZM8.91863 5.11657C8.91378 3.73003 7.80953 2.6262 6.42573 2.62493C5.03032 2.62345 3.91614 3.74734 3.92691 5.14655C3.93726 6.52781 5.05101 7.62383 6.43861 7.61876C7.82198 7.61391 8.92328 6.5029 8.91863 5.11657Z" fill="#B0B5D1"/>
</svg>
