<svg width="23" height="22" viewBox="0 0 23 22" fill="none" xmlns="http://www.w3.org/2000/svg">
<path d="M16.8164 1.74924C15.1541 0.787771 13.3385 0.307129 11.3701 0.307129C9.40143 0.307129 7.58594 0.787771 5.92362 1.74924C4.2613 2.71075 2.94502 4.01517 1.975 5.66229C1.00479 7.30982 0.519775 9.10896 0.519775 11.0597C0.519775 13.2345 1.11761 15.2086 2.31395 16.9818C3.51007 18.7555 5.07815 20.0668 7.0186 20.9159C6.98076 19.9172 7.04202 19.0914 7.20228 18.438L8.60089 12.5857C8.36539 12.1285 8.24773 11.5592 8.24773 10.8776C8.24773 10.0843 8.45022 9.42143 8.8552 8.88965C9.25995 8.35744 9.75459 8.09131 10.3386 8.09131C10.8094 8.09131 11.1722 8.24515 11.4265 8.55353C11.6808 8.86143 11.8081 9.24891 11.8081 9.71548C11.8081 10.005 11.7538 10.3575 11.6457 10.7726C11.5373 11.188 11.396 11.6686 11.2219 12.2147C11.0477 12.7606 10.9229 13.1969 10.8475 13.5237C10.7154 14.093 10.8239 14.5806 11.1724 14.9868C11.5207 15.3928 11.9824 15.5957 12.557 15.5957C13.5649 15.5957 14.3913 15.0406 15.0366 13.9298C15.6817 12.819 16.0043 11.4703 16.0043 9.88335C16.0043 8.66077 15.6065 7.66651 14.8106 6.90118C14.0146 6.13603 12.9054 5.75312 11.4834 5.75312C9.89146 5.75312 8.6034 6.25968 7.6194 7.27206C6.63517 8.28492 6.14304 9.49614 6.14304 10.9051C6.14304 11.7452 6.38338 12.4501 6.86355 13.0194C7.02363 13.2062 7.07545 13.4067 7.01902 13.6212C6.99998 13.6773 6.9624 13.8173 6.90597 14.0411C6.84958 14.265 6.81173 14.41 6.79292 14.4751C6.71746 14.774 6.53861 14.8674 6.25587 14.7552C5.53056 14.4565 4.97949 13.9386 4.60295 13.2012C4.22619 12.4639 4.03791 11.61 4.03791 10.6392C4.03791 10.0138 4.13904 9.38838 4.34153 8.76299C4.54401 8.13761 4.85932 7.53336 5.28817 6.94975C5.71652 6.36684 6.22997 5.85077 6.82826 5.40285C7.42632 4.9547 8.15394 4.59566 9.01111 4.32452C9.86808 4.05409 10.7913 3.91866 11.7803 3.91866C13.1177 3.91866 14.3187 4.21272 15.3829 4.8006C16.4471 5.38874 17.2596 6.14958 17.82 7.08287C18.3802 8.01619 18.6607 9.01472 18.6607 10.0792C18.6607 11.4792 18.4156 12.7394 17.926 13.8595C17.4362 14.9796 16.7439 15.8593 15.8491 16.4986C14.954 17.1378 13.9368 17.4575 12.7973 17.4575C12.2227 17.4575 11.6858 17.3246 11.1867 17.0584C10.6872 16.7924 10.3435 16.4774 10.1552 16.1133C9.73139 17.7652 9.47709 18.7504 9.39225 19.0674C9.21315 19.7303 8.84579 20.4954 8.29015 21.3635C9.29798 21.6622 10.3246 21.8114 11.3701 21.8114C13.3386 21.8114 15.1541 21.3308 16.8164 20.3695C18.4786 19.408 19.7949 18.1036 20.7652 16.4561C21.7352 14.8087 22.2205 13.0098 22.2205 11.0588C22.2205 9.10784 21.7352 7.30896 20.7652 5.6614C19.7952 4.01517 18.4786 2.71075 16.8164 1.74924Z" fill="#B0B5D1"/>
</svg>
