<svg width="23" height="18" viewBox="0 0 23 18" fill="none" xmlns="http://www.w3.org/2000/svg">
<path d="M22.1498 2.49767C21.3554 2.84615 20.5089 3.07713 19.6264 3.18928C20.5343 2.64721 21.2272 1.79538 21.553 0.768649C20.7065 1.27334 19.7719 1.62982 18.7759 1.82876C17.9721 0.972927 16.8266 0.442871 15.5769 0.442871C13.1522 0.442871 11.2002 2.41089 11.2002 4.82351C11.2002 5.17065 11.2296 5.50444 11.3017 5.82221C7.66073 5.64463 4.439 3.89958 2.27471 1.24129C1.89687 1.89685 1.67523 2.64721 1.67523 3.45498C1.67523 4.97171 2.4563 6.31621 3.62055 7.09461C2.91692 7.08126 2.22665 6.87698 1.64185 6.55521C1.64185 6.56856 1.64185 6.58591 1.64185 6.60327C1.64185 8.73151 3.15992 10.4992 5.15064 10.9065C4.79415 11.0039 4.40562 11.0507 4.0024 11.0507C3.72202 11.0507 3.43897 11.0346 3.17327 10.9759C3.74071 12.7103 5.35091 13.9853 7.26552 14.0267C5.77549 15.1923 3.88358 15.8946 1.83545 15.8946C1.47629 15.8946 1.13182 15.8786 0.787354 15.8345C2.72733 17.0856 5.02647 17.7999 7.50585 17.7999C15.5648 17.7999 19.9708 11.1241 19.9708 5.33754C19.9708 5.14395 19.9642 4.95703 19.9548 4.77144C20.824 4.1546 21.5543 3.38421 22.1498 2.49767Z" fill="#B0B5D1"/>
</svg>
