<svg width="25" height="15" viewBox="0 0 25 15" fill="none" xmlns="http://www.w3.org/2000/svg">
<path d="M20.2607 8.33783C19.8808 7.86429 19.9895 7.65362 20.2607 7.23034C20.2656 7.2255 23.4018 2.94823 23.7249 1.49767L23.7269 1.4967C23.8875 0.968081 23.7269 0.57959 22.9504 0.57959H20.3811C19.7271 0.57959 19.4255 0.912997 19.2639 1.28603C19.2639 1.28603 17.9558 4.37656 16.1052 6.37991C15.5079 6.95878 15.2318 7.14433 14.9057 7.14433C14.7452 7.14433 14.4955 6.95878 14.4955 6.43016V1.4967C14.4955 0.862744 14.3124 0.57959 13.7709 0.57959H9.73095C9.32069 0.57959 9.07688 0.875307 9.07688 1.15073C9.07688 1.75183 10.0022 1.89002 10.0981 3.58122V7.25063C10.0981 8.05467 9.95028 8.20253 9.62226 8.20253C8.74887 8.20253 6.62901 5.09943 5.37277 1.54792C5.11917 0.858878 4.87144 0.580556 4.21248 0.580556H1.64222C0.908837 0.580556 0.760986 0.913963 0.760986 1.28699C0.760986 1.94608 1.63438 5.22313 4.82249 9.55259C6.94724 12.5078 9.93951 14.1091 12.6615 14.1091C14.2977 14.1091 14.4974 13.7535 14.4974 13.1418C14.4974 10.318 14.3496 10.0512 15.1691 10.0512C15.549 10.0512 16.2031 10.2368 17.7306 11.6622C19.4764 13.3525 19.7633 14.1091 20.7405 14.1091H23.3098C24.0422 14.1091 24.4133 13.7535 24.1998 13.0519C23.7112 11.5762 20.4095 8.54077 20.2607 8.33783Z" fill="#B0B5D1"/>
</svg>
